<svg width="194" height="194" viewBox="0 0 194 194" fill="none" xmlns="http://www.w3.org/2000/svg">
<circle cx="97" cy="97" r="97" fill="#D9D9D9"/>
<g clip-path="url(#clip0_4_9)">
<path d="M130.948 47.6222L107.787 81.7222C106.185 84.0444 109.265 86.8556 111.483 84.9L134.274 65.2222C134.89 64.7333 135.752 65.1 135.752 65.9556V127.433C135.752 128.289 134.644 128.656 134.151 128.044L65.1609 46.1556C62.9434 43.4667 59.7403 42 56.1676 42H53.7037C47.2974 42 42 47.2556 42 53.7333V140.267C42 146.744 47.2974 152 53.8269 152C57.8923 152 61.7114 149.922 63.929 146.378L87.0899 112.278C88.6915 109.956 85.6115 107.144 83.394 109.1L60.6027 128.656C59.9867 129.144 59.1243 128.778 59.1243 127.922V66.5667C59.1243 65.7111 60.2331 65.3444 60.7259 65.9556L129.716 147.844C131.933 150.533 135.26 152 138.709 152H141.173C147.703 152 153 146.744 153 140.267V53.7333C153 47.2556 147.703 42 141.173 42C136.984 42 133.165 44.0778 130.948 47.6222Z" fill="black"/>
</g>
<defs>
<clipPath id="clip0_4_9">
<rect width="111" height="110" fill="white" transform="translate(42 42)"/>
</clipPath>
</defs>
</svg>
