<svg width="48" height="48" viewBox="0 0 48 48" fill="none" xmlns="http://www.w3.org/2000/svg">
<g clip-path="url(#clip0_8711_17463)">
<path d="M24 48C37.2548 48 48 37.2548 48 24C48 10.7452 37.2548 0 24 0C10.7452 0 0 10.7452 0 24C0 37.2548 10.7452 48 24 48Z" fill="white"/>
<path d="M27.7898 19.6567H20.2658C19.9464 19.6567 19.6846 19.9186 19.6846 20.2379V27.762C19.6846 28.0814 19.9464 28.3432 20.2658 28.3432H27.7898C28.1092 28.3432 28.371 28.0814 28.371 27.762V20.2379C28.371 19.9186 28.1092 19.6567 27.7898 19.6567Z" fill="black"/>
<path d="M19.1053 11H11.5812C11.2618 11 11 11.2618 11 11.5812V19.1053C11 19.4247 11.2618 19.6865 11.5812 19.6865H19.1053C19.4247 19.6865 19.6865 19.4247 19.6865 19.1053V11.5812C19.6846 11.2618 19.4247 11 19.1053 11Z" fill="black"/>
<path d="M36.4466 11H28.9225C28.6031 11 28.3413 11.2618 28.3413 11.5812V19.1053C28.3413 19.4247 28.6031 19.6865 28.9225 19.6865H36.4466C36.766 19.6865 37.0278 19.4247 37.0278 19.1053V11.5812C37.0278 11.2618 36.766 11 36.4466 11Z" fill="black"/>
<path d="M19.1053 28.3135H11.5812C11.2618 28.3135 11 28.5753 11 28.8947V36.4187C11 36.7381 11.2618 37 11.5812 37H19.1053C19.4247 37 19.6865 36.7381 19.6865 36.4187V28.8947C19.6846 28.5753 19.4247 28.3135 19.1053 28.3135Z" fill="black"/>
<path d="M36.4466 28.3135H28.9225C28.6031 28.3135 28.3413 28.5753 28.3413 28.8947V36.4187C28.3413 36.7381 28.6031 37 28.9225 37H36.4466C36.766 37 37.0278 36.7381 37.0278 36.4187V28.8947C37.0278 28.5753 36.766 28.3135 36.4466 28.3135Z" fill="black"/>
</g>
<defs>
<clipPath id="clip0_8711_17463">
<rect width="48" height="48" rx="24" fill="white"/>
</clipPath>
</defs>
</svg>
