<svg width="151" height="54" viewBox="0 0 151 54" fill="none" xmlns="http://www.w3.org/2000/svg">
<g clip-path="url(#clip0_213_919)">
<path d="M18.5006 36.4241C16.5497 36.4311 15.9504 35.0607 15.1917 33.3683C13.2153 28.9138 11.2325 24.4523 9.24971 19.9908C8.22326 25.4663 7.20316 30.9487 6.1831 36.4311C5.09287 36.4381 4.01541 36.4311 2.92522 36.4241C0.113625 36.4381 0.343143 34.7878 0.725673 32.641C1.93064 26.0747 3.14836 19.5083 4.37247 12.9489C4.79324 10.7532 5.1184 9.03989 8.05111 9.03989C9.13496 9.03989 10.2251 9.03989 11.3217 9.03989C13.9038 14.7461 16.4987 20.4524 19.0807 26.1796C18.2137 26.5152 17.3466 26.8509 16.4732 27.1866C17.4996 27.1935 18.5324 27.1935 19.5589 27.1935C20.4514 22.4453 21.344 17.6971 22.2493 12.942C22.702 10.7532 23.0272 9.03989 25.9535 9.03989C27.0437 9.03989 28.1403 9.03989 29.2305 9.03989C27.7068 16.9 26.1894 24.767 24.6848 32.6341C24.1556 35.4102 22.7084 36.4311 20.5535 36.4311C19.8649 36.4311 19.1827 36.4311 18.5006 36.4241Z" fill="white"/>
<path d="M44.8613 18.9118C45.9972 12.8383 47.1364 6.76149 48.2722 0.687988C42.5929 9.66127 36.9137 18.6312 31.2344 27.6045H41.0963C40.064 33.1 39.0317 38.5922 37.9994 44.0878C43.7088 35.639 49.4148 27.1902 55.1241 18.7414C52.0707 18.7982 47.9148 18.855 44.8613 18.9118Z" fill="#FFCC00"/>
<path d="M67.0976 35.9965H63.4027C62.5976 35.9965 61.9929 35.8996 61.582 35.7058C61.1711 35.5121 60.8905 35.2448 60.7435 34.9107C60.5932 34.5733 60.5431 34.1791 60.5932 33.7248C60.6433 33.2704 60.7101 32.7726 60.797 32.2281L64.4751 12.6713H54.209C54.2858 12.2303 54.4362 11.7827 54.6533 11.3317C54.8705 10.8773 55.1611 10.463 55.5219 10.0855C55.8827 9.71135 56.3404 9.40069 56.895 9.15348C57.4462 8.90626 58.1143 8.78265 58.8894 8.78265H82.7257C82.6489 9.22363 82.4785 9.67126 82.2246 10.1256C81.9673 10.5799 81.6333 10.9942 81.219 11.3717C80.8047 11.7459 80.3036 12.0599 79.7123 12.3038C79.121 12.551 78.4362 12.6746 77.6578 12.6746H71.4774L69.8036 21.7347L66.062 23.0176H69.5598L67.101 36.0032L67.0976 35.9965Z" fill="white"/>
<path d="M90.4256 35.9965H86.7307C85.9256 35.9965 85.3209 35.8996 84.91 35.7058C84.4991 35.512 84.2185 35.2448 84.0715 34.9107C83.9211 34.5733 83.871 34.1791 83.9211 33.7247C83.9712 33.2704 84.0381 32.7726 84.1249 32.2281L87.8031 12.6713C87.9133 12.1267 88.0303 11.6156 88.1539 11.1345C88.2775 10.6568 88.4746 10.2392 88.7519 9.89177C89.0258 9.54099 89.4067 9.27039 89.8911 9.07663C90.3755 8.88286 91.0303 8.78598 91.8621 8.78598H110.564C111.549 8.78598 112.388 8.83943 113.079 8.943C113.771 9.04656 114.325 9.24032 114.736 9.52763C115.147 9.81493 115.421 10.2091 115.548 10.7136C115.675 11.2181 115.668 11.8728 115.525 12.678L113.901 21.3472C113.764 22.0488 113.564 22.6301 113.296 23.0978C113.029 23.5655 112.698 23.9397 112.308 24.227C111.917 24.5109 111.459 24.7147 110.934 24.8283C110.41 24.9452 109.842 25.0287 109.231 25.0822L112.201 36.0098H104.387L101.694 25.1223H92.4801L90.4289 36.0098L90.4256 35.9965ZM94.7986 12.6679L93.4323 19.9374L89.6906 21.2203H104.854C105.529 21.2203 106.067 21.08 106.471 20.7927C106.875 20.5087 107.146 20.0276 107.286 19.3528L108.225 14.2982C108.365 13.6234 108.275 13.1824 107.955 12.9753C107.634 12.7682 107.136 12.6646 106.461 12.6646H94.7953L94.7986 12.6679Z" fill="white"/>
<path d="M118.733 32.2248L122.411 12.668C122.521 12.1234 122.638 11.6122 122.762 11.1312C122.885 10.6534 123.083 10.2359 123.36 9.88845C123.634 9.53767 124.015 9.26706 124.499 9.0733C124.983 8.87954 125.638 8.78265 126.47 8.78265H147.584C148.412 8.78265 149.034 8.87954 149.444 9.0733C149.855 9.26706 150.129 9.54101 150.27 9.88845C150.41 10.2392 150.45 10.6534 150.39 11.1312C150.333 11.6122 150.246 12.1234 150.136 12.668L146.458 32.2248C146.371 32.7693 146.257 33.267 146.117 33.7214C145.977 34.1758 145.773 34.57 145.509 34.9074C145.245 35.2448 144.871 35.5087 144.387 35.7025C143.902 35.8962 143.257 35.9931 142.456 35.9931H121.342C120.537 35.9931 119.932 35.8962 119.521 35.7025C119.11 35.5087 118.83 35.2415 118.683 34.9074C118.532 34.57 118.482 34.1758 118.532 33.7214C118.583 33.267 118.649 32.7693 118.736 32.2248H118.733ZM139.476 32.1078L143.134 12.668H129.41L125.992 30.825L122.251 32.1078H139.476Z" fill="white"/>
</g>
<defs>
<clipPath id="clip0_213_919">
<rect width="150" height="53.1181" fill="white" transform="translate(0.5 0.687988)"/>
</clipPath>
</defs>
</svg>
