<svg width="151" height="54" viewBox="0 0 151 54" fill="none" xmlns="http://www.w3.org/2000/svg">
<mask id="mask0_394_1027" style="mask-type:luminance" maskUnits="userSpaceOnUse" x="0" y="0" width="151" height="54">
<path d="M150.5 0.687988H0.5V53.8061H150.5V0.687988Z" fill="white"/>
</mask>
<g mask="url(#mask0_394_1027)">
<path d="M18.5006 36.4242C16.5497 36.4312 15.9504 35.0609 15.1917 33.3685C13.2153 28.9139 11.2325 24.4524 9.24971 19.9909C8.22326 25.4664 7.20316 30.9488 6.1831 36.4312C5.09287 36.4382 4.01541 36.4312 2.92522 36.4242C0.113625 36.4382 0.343143 34.7879 0.725673 32.6411C1.93064 26.0748 3.14836 19.5084 4.37247 12.949C4.79324 10.7533 5.1184 9.04004 8.05111 9.04004C9.13496 9.04004 10.2251 9.04004 11.3217 9.04004C13.9038 14.7462 16.4987 20.4525 19.0807 26.1797C18.2137 26.5153 17.3466 26.851 16.4732 27.1867C17.4996 27.1936 18.5324 27.1936 19.5589 27.1936C20.4514 22.4454 21.344 17.6972 22.2493 12.9421C22.702 10.7533 23.0272 9.04004 25.9535 9.04004C27.0437 9.04004 28.1403 9.04004 29.2305 9.04004C27.7068 16.9001 26.1894 24.7672 24.6848 32.6343C24.1556 35.4104 22.7084 36.4312 20.5535 36.4312C19.8649 36.4312 19.1827 36.4312 18.5006 36.4242Z" fill="black"/>
<path d="M44.8613 18.9118C45.9972 12.8383 47.1364 6.76149 48.2722 0.687988C42.5929 9.66127 36.9137 18.6312 31.2344 27.6045H41.0963C40.064 33.1 39.0317 38.5922 37.9994 44.0878C43.7088 35.639 49.4148 27.1902 55.1241 18.7414C52.0707 18.7982 47.9148 18.855 44.8613 18.9118Z" fill="#FFCC00"/>
<path d="M67.0976 35.9966H63.4027C62.5976 35.9966 61.9929 35.8997 61.582 35.7059C61.1711 35.5122 60.8905 35.2449 60.7435 34.9108C60.5932 34.5734 60.5431 34.1792 60.5932 33.7249C60.6433 33.2705 60.7101 32.7727 60.797 32.2282L64.4751 12.6714H54.209C54.2858 12.2304 54.4362 11.7828 54.6533 11.3318C54.8705 10.8774 55.1611 10.4631 55.5219 10.0856C55.8827 9.71141 56.3404 9.40075 56.895 9.15354C57.4462 8.90632 58.1143 8.78271 58.8894 8.78271H82.7257C82.6489 9.22369 82.4785 9.67132 82.2246 10.1257C81.9673 10.58 81.6333 10.9943 81.219 11.3718C80.8047 11.746 80.3036 12.06 79.7123 12.3039C79.121 12.5511 78.4362 12.6747 77.6578 12.6747H71.4774L69.8036 21.7348L66.062 23.0177H69.5598L67.101 36.0033L67.0976 35.9966Z" fill="black"/>
<path d="M90.4256 35.9967H86.7307C85.9256 35.9967 85.3209 35.8998 84.91 35.706C84.4991 35.5122 84.2185 35.245 84.0715 34.9109C83.9211 34.5735 83.871 34.1793 83.9211 33.7249C83.9712 33.2706 84.0381 32.7728 84.1249 32.2283L87.8031 12.6715C87.9133 12.1269 88.0303 11.6158 88.1539 11.1347C88.2775 10.657 88.4746 10.2394 88.7519 9.89192C89.0258 9.54114 89.4067 9.27054 89.8911 9.07678C90.3755 8.88301 91.0303 8.78613 91.8621 8.78613H110.564C111.549 8.78613 112.388 8.83958 113.079 8.94315C113.771 9.04671 114.325 9.24047 114.736 9.52778C115.147 9.81508 115.421 10.2093 115.548 10.7138C115.675 11.2183 115.668 11.873 115.525 12.6782L113.901 21.3474C113.764 22.049 113.564 22.6303 113.296 23.098C113.029 23.5657 112.698 23.9399 112.308 24.2272C111.917 24.5111 111.459 24.7149 110.934 24.8285C110.41 24.9454 109.842 25.0289 109.231 25.0824L112.201 36.01H104.387L101.694 25.1225H92.4801L90.4289 36.01L90.4256 35.9967ZM94.7986 12.6681L93.4323 19.9376L89.6906 21.2205H104.854C105.529 21.2205 106.067 21.0802 106.471 20.7929C106.875 20.5089 107.146 20.0278 107.286 19.353L108.225 14.2984C108.365 13.6236 108.275 13.1826 107.955 12.9755C107.634 12.7684 107.136 12.6648 106.461 12.6648H94.7953L94.7986 12.6681Z" fill="black"/>
<path d="M118.733 32.2249L122.411 12.6681C122.521 12.1235 122.638 11.6123 122.762 11.1313C122.885 10.6535 123.083 10.236 123.36 9.88851C123.634 9.53773 124.015 9.26713 124.499 9.07337C124.983 8.87961 125.638 8.78271 126.47 8.78271H147.584C148.412 8.78271 149.034 8.87961 149.444 9.07337C149.855 9.26713 150.129 9.54107 150.27 9.88851C150.41 10.2393 150.45 10.6535 150.39 11.1313C150.333 11.6123 150.246 12.1235 150.136 12.6681L146.458 32.2249C146.371 32.7694 146.257 33.2671 146.117 33.7215C145.977 34.1759 145.773 34.5701 145.509 34.9075C145.245 35.2449 144.871 35.5088 144.387 35.7026C143.902 35.8963 143.257 35.9932 142.456 35.9932H121.342C120.537 35.9932 119.932 35.8963 119.521 35.7026C119.11 35.5088 118.83 35.2416 118.683 34.9075C118.532 34.5701 118.482 34.1759 118.532 33.7215C118.583 33.2671 118.649 32.7694 118.736 32.2249H118.733ZM139.476 32.1079L143.134 12.6681H129.41L125.992 30.8251L122.251 32.1079H139.476Z" fill="black"/>
</g>
</svg>
