<svg width="198" height="81" viewBox="0 0 198 81" fill="none" xmlns="http://www.w3.org/2000/svg">
<g clip-path="url(#clip0_709_6309)">
<path d="M38.3042 25.322C39.4966 18.9467 40.6924 12.5678 41.8847 6.19238C35.9231 15.6117 29.9616 25.0275 24 34.4468H34.3521C33.2685 40.2155 32.1849 45.9807 31.1013 51.7494C37.0944 42.8807 43.084 34.0119 49.0771 25.1432C45.8719 25.2028 41.5095 25.2624 38.3042 25.322Z" fill="#FFCC00"/>
<path d="M62.3016 43.2564H58.4231C57.5779 43.2564 56.9432 43.1547 56.5118 42.9513C56.0805 42.7479 55.7859 42.4673 55.6316 42.1166C55.4738 41.7625 55.4212 41.3486 55.4738 40.8717C55.5264 40.3948 55.5966 39.8723 55.6877 39.3007L59.5487 18.7718C59.6645 18.2002 59.7872 17.6636 59.9169 17.1586C60.0467 16.6572 60.2536 16.2188 60.5447 15.8541C60.8322 15.4859 61.232 15.2018 61.7405 14.9985C62.249 14.7951 62.9363 14.6934 63.8095 14.6934H67.688L65.1386 28.2858L61.211 29.6324H64.8826L62.3016 43.2634V43.2564Z" fill="black"/>
<path d="M86.5439 43.256H82.6654C81.8202 43.256 81.1855 43.1543 80.7542 42.9509C80.3228 42.7475 80.0283 42.4669 79.874 42.1162C79.7161 41.7621 79.6635 41.3482 79.7161 40.8713C79.7688 40.3944 79.8389 39.8719 79.9301 39.3003L83.7911 18.7714H73.0146C73.0953 18.3085 73.2531 17.8386 73.4811 17.3652C73.709 16.8882 74.0141 16.4534 74.3928 16.0571C74.7716 15.6643 75.252 15.3382 75.8341 15.0787C76.4127 14.8192 77.1141 14.6895 77.9277 14.6895H102.949C102.868 15.1524 102.689 15.6223 102.423 16.0992C102.153 16.5761 101.802 17.011 101.367 17.4072C100.932 17.8 100.406 18.1296 99.7856 18.3856C99.1649 18.6451 98.446 18.7749 97.6289 18.7749H91.1413L89.3844 28.2854L85.4568 29.632H89.1284L86.5474 43.263L86.5439 43.256Z" fill="black"/>
<path d="M111.032 43.2564H107.154C106.308 43.2564 105.674 43.1547 105.242 42.9513C104.811 42.7479 104.516 42.4673 104.362 42.1166C104.204 41.7625 104.152 41.3486 104.204 40.8717C104.257 40.3948 104.327 39.8723 104.418 39.3007L108.279 18.7718C108.395 18.2002 108.518 17.6636 108.647 17.1586C108.777 16.6572 108.984 16.2188 109.275 15.8541C109.563 15.4859 109.962 15.2018 110.471 14.9985C110.979 14.7951 111.667 14.6934 112.54 14.6934H132.171C133.206 14.6934 134.086 14.7495 134.812 14.8582C135.538 14.9669 136.12 15.1703 136.551 15.4719C136.982 15.7735 137.27 16.1873 137.403 16.7168C137.536 17.2463 137.529 17.9337 137.379 18.7788L135.674 27.879C135.531 28.6154 135.32 29.2256 135.04 29.7165C134.759 30.2075 134.412 30.6003 134.002 30.9019C133.591 31.1999 133.111 31.4138 132.56 31.5331C132.01 31.6558 131.414 31.7435 130.772 31.7996L133.889 43.2704H125.687L122.86 31.8417H113.189L111.036 43.2704L111.032 43.2564ZM115.622 18.7683L114.188 26.3991L110.261 27.7457H126.178C126.886 27.7457 127.451 27.5984 127.875 27.2968C128.3 26.9988 128.584 26.4938 128.731 25.7854L129.716 20.4796C129.864 19.7712 129.769 19.3083 129.432 19.0909C129.096 18.8735 128.573 18.7648 127.865 18.7648H115.619L115.622 18.7683Z" fill="black"/>
<path d="M140.745 39.2968L144.606 18.7679C144.722 18.1963 144.844 17.6597 144.974 17.1547C145.104 16.6533 145.311 16.2149 145.602 15.8502C145.889 15.482 146.289 15.1979 146.798 14.9945C147.306 14.7912 147.993 14.6895 148.867 14.6895H171.03C171.899 14.6895 172.551 14.7912 172.983 14.9945C173.414 15.1979 173.702 15.4855 173.849 15.8502C173.996 16.2184 174.038 16.6533 173.975 17.1547C173.916 17.6597 173.824 18.1963 173.709 18.7679L169.848 39.2968C169.757 39.8684 169.637 40.3909 169.49 40.8678C169.343 41.3447 169.129 41.7585 168.852 42.1127C168.575 42.4669 168.182 42.744 167.674 42.9474C167.165 43.1508 166.488 43.2524 165.647 43.2524H143.484C142.638 43.2524 142.004 43.1508 141.572 42.9474C141.141 42.744 140.846 42.4634 140.692 42.1127C140.534 41.7585 140.482 41.3447 140.534 40.8678C140.587 40.3909 140.657 39.8684 140.748 39.2968H140.745ZM162.519 39.174L166.358 18.7679H151.953L148.365 37.8274L144.437 39.174H162.519Z" fill="black"/>
</g>
<path d="M29.8807 70V62.7273H32.3381C32.9086 62.7273 33.375 62.8303 33.7372 63.0362C34.1018 63.2398 34.3717 63.5156 34.5469 63.8636C34.7221 64.2116 34.8097 64.5999 34.8097 65.0284C34.8097 65.4569 34.7221 65.8464 34.5469 66.1967C34.3741 66.5471 34.1065 66.8265 33.7443 67.0348C33.3821 67.2408 32.9181 67.3438 32.3523 67.3438H30.5909V66.5625H32.3239C32.7145 66.5625 33.0282 66.495 33.2649 66.3601C33.5017 66.2251 33.6733 66.0429 33.7798 65.8132C33.8887 65.5812 33.9432 65.3196 33.9432 65.0284C33.9432 64.7372 33.8887 64.4768 33.7798 64.2472C33.6733 64.0175 33.5005 63.8376 33.2614 63.7074C33.0223 63.5748 32.705 63.5085 32.3097 63.5085H30.7614V70H29.8807ZM38.272 70.1136C37.7796 70.1136 37.3475 69.9964 36.9759 69.7621C36.6065 69.5277 36.3177 69.1998 36.1094 68.7784C35.9034 68.357 35.8004 67.8646 35.8004 67.3011C35.8004 66.733 35.9034 66.237 36.1094 65.8132C36.3177 65.3894 36.6065 65.0604 36.9759 64.826C37.3475 64.5916 37.7796 64.4744 38.272 64.4744C38.7644 64.4744 39.1953 64.5916 39.5646 64.826C39.9363 65.0604 40.2251 65.3894 40.4311 65.8132C40.6394 66.237 40.7436 66.733 40.7436 67.3011C40.7436 67.8646 40.6394 68.357 40.4311 68.7784C40.2251 69.1998 39.9363 69.5277 39.5646 69.7621C39.1953 69.9964 38.7644 70.1136 38.272 70.1136ZM38.272 69.3608C38.6461 69.3608 38.9538 69.2649 39.1953 69.0732C39.4368 68.8814 39.6155 68.6293 39.7315 68.3168C39.8475 68.0043 39.9055 67.6657 39.9055 67.3011C39.9055 66.9366 39.8475 66.5968 39.7315 66.282C39.6155 65.9671 39.4368 65.7126 39.1953 65.5185C38.9538 65.3243 38.6461 65.2273 38.272 65.2273C37.898 65.2273 37.5902 65.3243 37.3487 65.5185C37.1072 65.7126 36.9285 65.9671 36.8125 66.282C36.6965 66.5968 36.6385 66.9366 36.6385 67.3011C36.6385 67.6657 36.6965 68.0043 36.8125 68.3168C36.9285 68.6293 37.1072 68.8814 37.3487 69.0732C37.5902 69.2649 37.898 69.3608 38.272 69.3608ZM43.0732 70L41.4112 64.5455H42.2919L43.4709 68.7216H43.5277L44.6925 64.5455H45.5874L46.7379 68.7074H46.7947L47.9737 64.5455H48.8544L47.1925 70H46.3686L45.1754 65.8097H45.0902L43.897 70H43.0732ZM52.0637 70.1136C51.5382 70.1136 51.0848 69.9976 50.7037 69.7656C50.3249 69.5312 50.0325 69.2045 49.8265 68.7855C49.6229 68.3641 49.5211 67.8741 49.5211 67.3153C49.5211 66.7566 49.6229 66.2642 49.8265 65.8381C50.0325 65.4096 50.319 65.0758 50.6859 64.8366C51.0552 64.5952 51.4861 64.4744 51.9785 64.4744C52.2626 64.4744 52.5431 64.5218 52.8201 64.6165C53.0971 64.7112 53.3493 64.8651 53.5765 65.0781C53.8038 65.2888 53.9849 65.5682 54.1199 65.9162C54.2548 66.2642 54.3223 66.6927 54.3223 67.2017V67.5568H50.1177V66.8324H53.47C53.47 66.5246 53.4084 66.25 53.2853 66.0085C53.1646 65.767 52.9918 65.5765 52.7669 65.4368C52.5443 65.2971 52.2815 65.2273 51.9785 65.2273C51.6447 65.2273 51.3559 65.3101 51.112 65.4759C50.8706 65.6392 50.6847 65.8523 50.5545 66.1151C50.4243 66.3778 50.3592 66.6596 50.3592 66.9602V67.4432C50.3592 67.8551 50.4302 68.2043 50.5723 68.4908C50.7167 68.7749 50.9167 68.9915 51.1724 69.1406C51.4281 69.2874 51.7252 69.3608 52.0637 69.3608C52.2839 69.3608 52.4828 69.33 52.6603 69.2685C52.8403 69.2045 52.9953 69.1098 53.1255 68.9844C53.2557 68.8565 53.3564 68.6979 53.4274 68.5085L54.237 68.7358C54.1518 69.0104 54.0086 69.2519 53.8074 69.4602C53.6061 69.6662 53.3575 69.8272 53.0616 69.9432C52.7657 70.0568 52.4331 70.1136 52.0637 70.1136ZM55.5971 70V64.5455H56.4068V65.3693H56.4636C56.563 65.0994 56.743 64.8804 57.0034 64.7124C57.2638 64.5443 57.5574 64.4602 57.8841 64.4602C57.9456 64.4602 58.0225 64.4614 58.1149 64.4638C58.2072 64.4661 58.277 64.4697 58.3244 64.4744V65.3267C58.296 65.3196 58.2309 65.3089 58.1291 65.2947C58.0297 65.2782 57.9243 65.2699 57.813 65.2699C57.5479 65.2699 57.3111 65.3255 57.1028 65.4368C56.8968 65.5457 56.7335 65.6972 56.6127 65.8913C56.4944 66.0831 56.4352 66.3021 56.4352 66.5483V70H55.5971ZM61.4387 70.1136C60.9132 70.1136 60.4598 69.9976 60.0787 69.7656C59.6999 69.5312 59.4075 69.2045 59.2015 68.7855C58.9979 68.3641 58.8961 67.8741 58.8961 67.3153C58.8961 66.7566 58.9979 66.2642 59.2015 65.8381C59.4075 65.4096 59.694 65.0758 60.0609 64.8366C60.4302 64.5952 60.8611 64.4744 61.3535 64.4744C61.6376 64.4744 61.9181 64.5218 62.1951 64.6165C62.4721 64.7112 62.7243 64.8651 62.9515 65.0781C63.1788 65.2888 63.3599 65.5682 63.4949 65.9162C63.6298 66.2642 63.6973 66.6927 63.6973 67.2017V67.5568H59.4927V66.8324H62.845C62.845 66.5246 62.7834 66.25 62.6603 66.0085C62.5396 65.767 62.3668 65.5765 62.1419 65.4368C61.9193 65.2971 61.6565 65.2273 61.3535 65.2273C61.0197 65.2273 60.7309 65.3101 60.487 65.4759C60.2456 65.6392 60.0597 65.8523 59.9295 66.1151C59.7993 66.3778 59.7342 66.6596 59.7342 66.9602V67.4432C59.7342 67.8551 59.8052 68.2043 59.9473 68.4908C60.0917 68.7749 60.2917 68.9915 60.5474 69.1406C60.8031 69.2874 61.1002 69.3608 61.4387 69.3608C61.6589 69.3608 61.8578 69.33 62.0353 69.2685C62.2153 69.2045 62.3703 69.1098 62.5005 68.9844C62.6307 68.8565 62.7314 68.6979 62.8024 68.5085L63.612 68.7358C63.5268 69.0104 63.3836 69.2519 63.1824 69.4602C62.9811 69.6662 62.7325 69.8272 62.4366 69.9432C62.1407 70.0568 61.8081 70.1136 61.4387 70.1136ZM67.0318 70.1136C66.5772 70.1136 66.176 69.9988 65.8279 69.7692C65.4799 69.5372 65.2077 69.2105 65.0112 68.7891C64.8147 68.3653 64.7164 67.8646 64.7164 67.2869C64.7164 66.714 64.8147 66.2169 65.0112 65.7955C65.2077 65.3741 65.4811 65.0485 65.8315 64.8189C66.1819 64.5893 66.5867 64.4744 67.046 64.4744C67.4011 64.4744 67.6816 64.5336 67.8876 64.652C68.0959 64.768 68.2546 64.9006 68.3635 65.0497C68.4747 65.1965 68.5611 65.3172 68.6227 65.4119H68.6937V62.7273H69.5318V70H68.7221V69.1619H68.6227C68.5611 69.2614 68.4735 69.3868 68.3599 69.5384C68.2463 69.6875 68.0841 69.8213 67.8734 69.9396C67.6627 70.0556 67.3822 70.1136 67.0318 70.1136ZM67.1454 69.3608C67.4816 69.3608 67.7657 69.2732 67.9977 69.098C68.2297 68.9205 68.4061 68.6754 68.5268 68.3629C68.6475 68.0481 68.7079 67.6847 68.7079 67.2727C68.7079 66.8655 68.6487 66.5092 68.5304 66.2038C68.412 65.8961 68.2368 65.657 68.0048 65.4865C67.7728 65.3137 67.4863 65.2273 67.1454 65.2273C66.7903 65.2273 66.4944 65.3184 66.2576 65.5007C66.0233 65.6806 65.8469 65.9257 65.7285 66.2358C65.6125 66.5436 65.5545 66.8892 65.5545 67.2727C65.5545 67.661 65.6137 68.0137 65.7321 68.331C65.8528 68.6458 66.0304 68.8968 66.2647 69.0838C66.5015 69.2685 66.795 69.3608 67.1454 69.3608ZM74.1092 70V62.7273H74.9473V65.4119H75.0183C75.0798 65.3172 75.1651 65.1965 75.274 65.0497C75.3852 64.9006 75.5439 64.768 75.7498 64.652C75.9582 64.5336 76.2399 64.4744 76.595 64.4744C77.0543 64.4744 77.4591 64.5893 77.8095 64.8189C78.1599 65.0485 78.4333 65.3741 78.6298 65.7955C78.8263 66.2169 78.9245 66.714 78.9245 67.2869C78.9245 67.8646 78.8263 68.3653 78.6298 68.7891C78.4333 69.2105 78.161 69.5372 77.813 69.7692C77.465 69.9988 77.0637 70.1136 76.6092 70.1136C76.2588 70.1136 75.9783 70.0556 75.7676 69.9396C75.5569 69.8213 75.3947 69.6875 75.2811 69.5384C75.1674 69.3868 75.0798 69.2614 75.0183 69.1619H74.9189V70H74.1092ZM74.9331 67.2727C74.9331 67.6847 74.9934 68.0481 75.1142 68.3629C75.2349 68.6754 75.4113 68.9205 75.6433 69.098C75.8753 69.2732 76.1594 69.3608 76.4956 69.3608C76.8459 69.3608 77.1383 69.2685 77.3727 69.0838C77.6094 68.8968 77.787 68.6458 77.9054 68.331C78.0261 68.0137 78.0865 67.661 78.0865 67.2727C78.0865 66.8892 78.0273 66.5436 77.9089 66.2358C77.7929 65.9257 77.6165 65.6806 77.3798 65.5007C77.1454 65.3184 76.8507 65.2273 76.4956 65.2273C76.1547 65.2273 75.8682 65.3137 75.6362 65.4865C75.4042 65.657 75.229 65.8961 75.1106 66.2038C74.9922 66.5092 74.9331 66.8655 74.9331 67.2727ZM80.551 72.0455C80.4089 72.0455 80.2823 72.0336 80.171 72.0099C80.0597 71.9886 79.9828 71.9673 79.9402 71.946L80.1532 71.2074C80.3568 71.2595 80.5368 71.2784 80.693 71.2642C80.8493 71.25 80.9877 71.1802 81.1085 71.0547C81.2316 70.9316 81.344 70.7315 81.4458 70.4545L81.6021 70.0284L79.585 64.5455H80.4941L81.9998 68.892H82.0566L83.5623 64.5455H84.4714L82.1561 70.7955C82.0519 71.0772 81.9229 71.3104 81.769 71.495C81.6151 71.6821 81.4364 71.8205 81.2328 71.9105C81.0315 72.0005 80.8043 72.0455 80.551 72.0455Z" fill="black"/>
<g clip-path="url(#clip1_709_6309)">
<path d="M97.1836 70.6515C97.0217 70.6515 96.8921 70.6515 96.7302 70.4896L94.3334 68.0928C94.2686 68.028 94.2362 67.9956 94.2362 67.9309C94.2038 67.8985 94.1715 67.7689 94.2038 67.6394C94.2038 67.5746 94.2362 67.5422 94.2686 67.5098C94.301 67.4774 94.3334 67.445 94.3658 67.4126C94.4306 67.3479 94.463 67.2831 94.4953 67.2507C95.0783 66.7001 95.6289 66.1495 96.2119 65.6313C97.5075 64.3681 98.803 63.1049 100.099 61.8418C100.099 61.777 100.196 61.3883 100.487 61.2912C100.584 61.2588 100.714 61.2588 100.779 61.2588C100.941 61.2588 101.07 61.2588 101.232 61.4207L103.758 63.8175C103.856 63.947 103.953 64.109 103.92 64.2709C103.888 64.4329 103.726 64.53 103.661 64.5624C103.37 64.7244 102.463 65.6313 100.746 67.445C99.7099 68.4491 98.7059 69.4531 97.6694 70.4248C97.637 70.4572 97.6046 70.5543 97.5075 70.6191C97.4103 70.6515 97.3131 70.6515 97.1836 70.6515Z" fill="#AF145B"/>
<path d="M103.727 59.0241L98.8034 54.263C98.0585 53.68 97.1516 53.2266 96.1152 53.2266C95.0787 53.2266 94.0423 53.68 93.2974 54.4249C93.0059 54.5869 93.0059 54.7164 93.0059 54.8784C93.0059 55.0403 93.0059 55.1699 93.1678 55.3318L99.8723 61.7448C100.034 61.9067 100.164 61.9067 100.164 62.0363C101.654 63.6881 101.816 66.0525 100.455 67.7043L103.727 64.5626C104.471 63.9796 104.925 62.9108 104.925 61.8743C104.925 60.8379 104.471 59.7691 103.727 59.0241Z" fill="url(#paint0_linear_709_6309)"/>
<path d="M97.9294 69.7774C96.4396 68.1256 96.2776 65.7612 97.7675 64.1094L94.4962 67.2511C93.7513 67.996 93.2979 69.0325 93.2979 70.0689C93.2979 71.1053 93.7513 72.1418 94.4962 72.8867L101.654 80.1742C101.816 80.3361 101.946 80.3361 102.108 80.3361C102.27 80.3361 102.399 80.3361 102.561 80.1742C103.306 79.4292 103.759 78.3928 103.759 77.3563C103.759 76.3199 103.306 75.2835 102.561 74.5385L98.0914 70.0689C98.059 69.9069 97.9294 69.9069 97.9294 69.7774Z" fill="url(#paint1_linear_709_6309)"/>
<path d="M117.232 65.696C117.459 65.113 117.783 64.692 118.301 64.4005C118.787 64.109 119.37 63.9794 119.953 63.9794V66.5382C119.24 66.441 118.625 66.6029 118.042 66.9592C117.491 67.3155 117.232 67.9309 117.232 68.8054V73.0807H114.933V64.1414H117.232V65.696ZM130.35 72.0118C129.443 72.9187 128.309 73.3722 126.981 73.3722C125.653 73.3722 124.552 72.9187 123.613 72.0118C122.706 71.105 122.252 69.9713 122.252 68.6434C122.252 67.3155 122.706 66.2143 123.613 65.3074C124.52 64.4005 125.653 63.9147 126.981 63.9147C128.309 63.9147 129.41 64.3681 130.35 65.3074C131.256 66.2143 131.742 67.3155 131.742 68.6434C131.742 69.9713 131.289 71.0726 130.35 72.0118ZM125.265 70.4248C125.718 70.8782 126.301 71.1373 127.014 71.1373C127.726 71.1373 128.277 70.9106 128.763 70.4248C129.216 69.9713 129.475 69.356 129.475 68.6434C129.475 67.9309 129.248 67.3479 128.763 66.862C128.309 66.4086 127.726 66.1495 127.014 66.1495C126.301 66.1495 125.75 66.3762 125.265 66.862C124.811 67.3155 124.584 67.9309 124.584 68.6434C124.584 69.356 124.811 69.939 125.265 70.4248ZM141.038 64.1738H143.337V73.113H141.038V72.109C140.487 72.9511 139.58 73.3722 138.382 73.3722C137.41 73.3722 136.601 73.0483 135.953 72.4005C135.305 71.7527 135.014 70.8458 135.014 69.6798V64.2062H137.313V69.4207C137.313 70.0037 137.475 70.4896 137.799 70.8135C138.123 71.1373 138.544 71.2669 139.094 71.2669C139.677 71.2669 140.163 71.0726 140.52 70.7163C140.876 70.36 141.07 69.777 141.07 69.0645L141.038 64.1738ZM152.374 66.3762H150.333V70.1009C150.333 70.4248 150.398 70.6515 150.56 70.7811C150.722 70.9106 150.949 71.0078 151.24 71.0402C151.532 71.0402 151.92 71.0402 152.341 71.0078V73.113C150.754 73.3074 149.621 73.1454 148.973 72.6596C148.325 72.1738 148.001 71.3317 148.001 70.1009V66.3762H146.447V64.1738H148.001V62.36L150.301 61.6475V64.1414H152.309V66.3762H152.374ZM157.459 69.5827C157.783 70.7163 158.625 71.2669 159.985 71.2669C160.86 71.2669 161.54 70.9754 161.993 70.36L163.839 71.4288C162.965 72.692 161.669 73.3398 159.953 73.3398C158.463 73.3398 157.297 72.8863 156.39 72.0118C155.483 71.105 155.062 70.0037 155.062 68.6434C155.062 67.2831 155.516 66.1819 156.39 65.275C157.265 64.3681 158.398 63.9147 159.791 63.9147C161.086 63.9147 162.188 64.3681 163.03 65.275C163.872 66.1819 164.325 67.3155 164.325 68.6434C164.325 68.9349 164.293 69.2588 164.228 69.5827H157.459ZM157.426 67.8013H161.993C161.864 67.1859 161.572 66.7325 161.184 66.441C160.763 66.1495 160.309 65.9875 159.791 65.9875C159.175 65.9875 158.657 66.1495 158.269 66.4734C157.815 66.7973 157.556 67.2183 157.426 67.8013ZM169.993 65.696C170.22 65.113 170.544 64.692 171.062 64.4005C171.548 64.109 172.131 63.9794 172.714 63.9794V66.5382C172.001 66.441 171.386 66.6029 170.803 66.9592C170.252 67.3155 169.993 67.9309 169.993 68.8054V73.0807H167.694V64.1414H169.993V65.696Z" fill="#CB0766"/>
</g>
<defs>
<linearGradient id="paint0_linear_709_6309" x1="93.0059" y1="60.4654" x2="104.925" y2="60.4654" gradientUnits="userSpaceOnUse">
<stop stop-color="#CB0766"/>
<stop offset="1" stop-color="#E04391"/>
</linearGradient>
<linearGradient id="paint1_linear_709_6309" x1="93.1815" y1="72.2227" x2="103.711" y2="72.2227" gradientUnits="userSpaceOnUse">
<stop stop-color="#CB0766"/>
<stop offset="1" stop-color="#E04391"/>
</linearGradient>
<clipPath id="clip0_709_6309">
<rect width="150" height="45.557" fill="white" transform="translate(24 6.19238)"/>
</clipPath>
<clipPath id="clip1_709_6309">
<rect width="80" height="27.5304" fill="white" transform="translate(93.0059 53)"/>
</clipPath>
</defs>
</svg>
