<svg width="449" height="159" viewBox="0 0 449 159" fill="none" xmlns="http://www.w3.org/2000/svg">
<path d="M278.177 136.39C278.573 135.91 279.083 135.52 279.707 135.22C280.331 134.92 281.009 134.77 281.741 134.77C282.485 134.77 283.139 134.932 283.703 135.256C284.279 135.568 284.723 136.024 285.035 136.624C285.347 137.224 285.503 137.926 285.503 138.73C285.503 139.102 285.467 139.486 285.395 139.882C285.215 140.902 284.855 141.808 284.315 142.6C283.775 143.38 283.121 143.986 282.353 144.418C281.585 144.85 280.781 145.066 279.941 145.066C279.197 145.066 278.567 144.922 278.051 144.634C277.535 144.334 277.157 143.95 276.917 143.482L276.665 144.904H274.127L276.485 131.584H279.023L278.177 136.39ZM282.821 139.882C282.857 139.642 282.875 139.426 282.875 139.234C282.875 138.526 282.671 137.974 282.263 137.578C281.855 137.182 281.333 136.984 280.697 136.984C280.241 136.984 279.791 137.104 279.347 137.344C278.903 137.572 278.519 137.908 278.195 138.352C277.871 138.796 277.655 139.318 277.547 139.918C277.499 140.23 277.475 140.458 277.475 140.602C277.475 141.31 277.679 141.862 278.087 142.258C278.507 142.654 279.029 142.852 279.653 142.852C280.121 142.852 280.577 142.732 281.021 142.492C281.465 142.252 281.849 141.91 282.173 141.466C282.497 141.022 282.713 140.494 282.821 139.882ZM289.764 134.932L291.096 141.898L294.966 134.932H297.648L288.882 149.62H286.2L289.224 144.652L286.938 134.932H289.764Z" fill="white"/>
<mask id="mask0_15_83" style="mask-type:luminance" maskUnits="userSpaceOnUse" x="301" y="112" width="134" height="47">
<path d="M434.963 112H301.208V158.029H434.963V112Z" fill="white"/>
</mask>
<g mask="url(#mask0_15_83)">
<path d="M311.958 141.132C311.688 141.132 311.471 141.132 311.2 140.862L307.193 136.854C307.085 136.746 307.03 136.692 307.03 136.584C306.976 136.53 306.922 136.313 306.976 136.096C306.976 135.988 307.03 135.934 307.085 135.88C307.139 135.826 307.193 135.771 307.247 135.717C307.355 135.609 307.41 135.501 307.464 135.447C308.438 134.526 309.359 133.605 310.334 132.739C312.5 130.627 314.666 128.515 316.833 126.403C316.833 126.295 316.995 125.645 317.481 125.483C317.643 125.428 317.861 125.428 317.969 125.428C318.24 125.428 318.456 125.428 318.727 125.699L322.95 129.706C323.114 129.923 323.276 130.194 323.221 130.464C323.167 130.735 322.897 130.898 322.788 130.952C322.301 131.223 320.785 132.739 317.914 135.771C316.182 137.45 314.503 139.129 312.77 140.753C312.716 140.808 312.662 140.97 312.5 141.078C312.337 141.132 312.175 141.132 311.958 141.132Z" fill="#AF145B"/>
<path d="M322.899 121.693L314.667 113.733C313.421 112.758 311.905 112 310.172 112C308.439 112 306.707 112.758 305.461 114.004C304.974 114.274 304.974 114.491 304.974 114.762C304.974 115.032 304.974 115.249 305.245 115.52L316.454 126.242C316.724 126.513 316.942 126.513 316.942 126.729C319.433 129.491 319.704 133.444 317.428 136.206L322.899 130.953C324.143 129.978 324.902 128.191 324.902 126.458C324.902 124.726 324.143 122.939 322.899 121.693Z" fill="url(#paint0_linear_15_83)"/>
<path d="M313.206 139.671C310.715 136.909 310.444 132.956 312.935 130.194L307.466 135.447C306.22 136.693 305.462 138.425 305.462 140.158C305.462 141.891 306.22 143.624 307.466 144.869L319.433 157.054C319.704 157.324 319.921 157.324 320.192 157.324C320.463 157.324 320.679 157.324 320.949 157.054C322.195 155.808 322.952 154.075 322.952 152.342C322.952 150.61 322.195 148.877 320.949 147.631L313.477 140.158C313.422 139.887 313.206 139.887 313.206 139.671Z" fill="url(#paint1_linear_15_83)"/>
<path d="M341.712 133.226C342.092 132.252 342.634 131.548 343.5 131.06C344.312 130.573 345.287 130.356 346.262 130.356V134.634C345.07 134.472 344.041 134.743 343.067 135.338C342.146 135.934 341.712 136.963 341.712 138.425V145.573H337.869V130.627H341.712V133.226ZM363.645 143.786C362.128 145.302 360.232 146.06 358.012 146.06C355.792 146.06 353.951 145.302 352.381 143.786C350.865 142.27 350.106 140.374 350.106 138.154C350.106 135.934 350.865 134.093 352.381 132.577C353.898 131.06 355.792 130.248 358.012 130.248C360.232 130.248 362.073 131.006 363.645 132.577C365.16 134.093 365.972 135.934 365.972 138.154C365.972 140.374 365.215 142.216 363.645 143.786ZM355.143 141.133C355.9 141.891 356.875 142.324 358.067 142.324C359.258 142.324 360.179 141.945 360.992 141.133C361.749 140.374 362.182 139.346 362.182 138.154C362.182 136.963 361.802 135.988 360.992 135.176C360.232 134.418 359.258 133.985 358.067 133.985C356.875 133.985 355.954 134.364 355.143 135.176C354.384 135.934 354.005 136.963 354.005 138.154C354.005 139.346 354.384 140.32 355.143 141.133ZM381.514 130.681H385.358V145.627H381.514V143.948C380.593 145.356 379.077 146.06 377.074 146.06C375.449 146.06 374.096 145.519 373.013 144.436C371.929 143.353 371.443 141.836 371.443 139.887V130.735H375.287V139.454C375.287 140.429 375.557 141.241 376.099 141.782C376.641 142.324 377.345 142.54 378.264 142.54C379.239 142.54 380.052 142.216 380.648 141.62C381.244 141.024 381.568 140.049 381.568 138.858L381.514 130.681ZM400.467 134.364H397.055V140.591C397.055 141.133 397.164 141.512 397.435 141.728C397.705 141.945 398.085 142.107 398.572 142.161C399.06 142.161 399.708 142.161 400.412 142.107V145.627C397.759 145.952 395.865 145.681 394.781 144.869C393.698 144.057 393.156 142.649 393.156 140.591V134.364H390.558V130.681H393.156V127.649L397.002 126.458V130.627H400.359V134.364H400.467ZM408.969 139.725C409.511 141.62 410.919 142.54 413.193 142.54C414.656 142.54 415.792 142.053 416.55 141.024L419.636 142.811C418.175 144.923 416.008 146.006 413.139 146.006C410.648 146.006 408.698 145.248 407.182 143.786C405.666 142.27 404.962 140.429 404.962 138.154C404.962 135.88 405.721 134.039 407.182 132.522C408.645 131.006 410.539 130.248 412.868 130.248C415.033 130.248 416.876 131.006 418.284 132.522C419.691 134.039 420.449 135.934 420.449 138.154C420.449 138.642 420.395 139.183 420.287 139.725H408.969ZM408.914 136.746H416.55C416.334 135.717 415.846 134.959 415.197 134.472C414.493 133.985 413.734 133.714 412.868 133.714C411.838 133.714 410.972 133.985 410.324 134.526C409.564 135.068 409.131 135.772 408.914 136.746ZM429.925 133.226C430.305 132.252 430.846 131.548 431.713 131.06C432.525 130.573 433.5 130.356 434.475 130.356V134.634C433.283 134.472 432.254 134.743 431.28 135.338C430.358 135.934 429.925 136.963 429.925 138.425V145.573H426.081V130.627H429.925V133.226Z" fill="#CB0766"/>
</g>
<path d="M53.8817 106.97C48.042 106.991 46.2481 102.889 43.9771 97.823C38.061 84.4892 32.1259 71.1345 26.1908 57.7798C23.1183 74.1697 20.0648 90.5805 17.0114 106.991C13.748 107.012 10.5228 106.991 7.25949 106.97C-1.15655 107.012 -0.469525 102.072 0.675514 95.6461C4.28239 75.9908 7.92743 56.3355 11.5916 36.7011C12.8511 30.1284 13.8244 25 22.603 25C25.8473 25 29.1106 25 32.3931 25C40.1221 42.0807 47.8893 59.1613 55.6183 76.3048C53.0229 77.3095 50.4275 78.3143 47.813 79.319C50.8855 79.3399 53.9771 79.3399 57.0496 79.3399C59.7213 65.127 62.3931 50.914 65.103 36.6802C66.458 30.1284 67.4313 25 76.1908 25C79.4542 25 82.7366 25 86 25C81.4389 48.5278 76.8969 72.0765 72.3931 95.6252C70.8091 103.935 66.4771 106.991 60.0267 106.991C57.9656 106.991 55.9236 106.991 53.8817 106.97Z" fill="white"/>
<path d="M132.79 54.55C136.19 36.37 139.6 18.18 143 0C126 26.86 109 53.71 92 80.57H121.52C118.43 97.02 115.34 113.46 112.25 129.91C129.34 104.62 146.42 79.33 163.51 54.04C154.37 54.21 141.93 54.38 132.79 54.55Z" fill="#FFCC00"/>
<path d="M199.35 105.69H188.29C185.88 105.69 184.07 105.4 182.84 104.82C181.61 104.24 180.77 103.44 180.33 102.44C179.88 101.43 179.73 100.25 179.88 98.89C180.03 97.53 180.23 96.04 180.49 94.41L191.5 35.8699H160.77C161 34.5499 161.45 33.21 162.1 31.86C162.75 30.5 163.62 29.2599 164.7 28.1299C165.78 27.0099 167.15 26.08 168.81 25.34C170.46 24.6 172.46 24.23 174.78 24.23H246.13C245.9 25.55 245.39 26.8899 244.63 28.2499C243.86 29.6099 242.86 30.85 241.62 31.98C240.38 33.1 238.88 34.04 237.11 34.77C235.34 35.51 233.29 35.8799 230.96 35.8799H212.46L207.45 62.9999L196.25 66.84H206.72L199.36 105.71L199.35 105.69Z" fill="white"/>
<path d="M269.18 105.69H258.12C255.71 105.69 253.9 105.4 252.67 104.82C251.44 104.24 250.6 103.44 250.16 102.44C249.71 101.43 249.56 100.25 249.71 98.89C249.86 97.53 250.06 96.04 250.32 94.41L261.33 35.87C261.66 34.24 262.01 32.71 262.38 31.27C262.75 29.84 263.34 28.59 264.17 27.55C264.99 26.5 266.13 25.69 267.58 25.11C269.03 24.53 270.99 24.24 273.48 24.24H329.46C332.41 24.24 334.92 24.4 336.99 24.71C339.06 25.02 340.72 25.6 341.95 26.46C343.18 27.32 344 28.5 344.38 30.01C344.76 31.52 344.74 33.48 344.31 35.89L339.45 61.84C339.04 63.94 338.44 65.68 337.64 67.08C336.84 68.48 335.85 69.6 334.68 70.46C333.51 71.31 332.14 71.92 330.57 72.26C329 72.61 327.3 72.86 325.47 73.02L334.36 105.73H310.97L302.91 73.14H275.33L269.19 105.73L269.18 105.69ZM282.27 35.86L278.18 57.62L266.98 61.46H312.37C314.39 61.46 316 61.04 317.21 60.18C318.42 59.33 319.23 57.89 319.65 55.87L322.46 40.74C322.88 38.72 322.61 37.4 321.65 36.78C320.69 36.16 319.2 35.85 317.18 35.85H282.26L282.27 35.86Z" fill="white"/>
<path d="M353.91 94.4L364.92 35.86C365.25 34.23 365.6 32.6999 365.97 31.2599C366.34 29.8299 366.93 28.58 367.76 27.54C368.58 26.49 369.72 25.68 371.17 25.1C372.62 24.52 374.58 24.23 377.07 24.23H440.27C442.75 24.23 444.61 24.52 445.84 25.1C447.07 25.68 447.89 26.5 448.31 27.54C448.73 28.59 448.85 29.8299 448.67 31.2599C448.5 32.6999 448.24 34.23 447.91 35.86L436.9 94.4C436.64 96.03 436.3 97.5199 435.88 98.8799C435.46 100.24 434.85 101.42 434.06 102.43C433.27 103.44 432.15 104.23 430.7 104.81C429.25 105.39 427.32 105.68 424.92 105.68H361.72C359.31 105.68 357.5 105.39 356.27 104.81C355.04 104.23 354.2 103.43 353.76 102.43C353.31 101.42 353.16 100.24 353.31 98.8799C353.46 97.5199 353.66 96.03 353.92 94.4H353.91ZM416 94.0499L426.95 35.86H385.87L375.64 90.21L364.44 94.0499H416Z" fill="white"/>
<defs>
<linearGradient id="paint0_linear_15_83" x1="304.974" y1="124.103" x2="324.902" y2="124.103" gradientUnits="userSpaceOnUse">
<stop stop-color="#CB0766"/>
<stop offset="1" stop-color="#E04391"/>
</linearGradient>
<linearGradient id="paint1_linear_15_83" x1="305.268" y1="143.759" x2="322.872" y2="143.759" gradientUnits="userSpaceOnUse">
<stop stop-color="#CB0766"/>
<stop offset="1" stop-color="#E04391"/>
</linearGradient>
</defs>
</svg>
