<svg width="153" height="233" viewBox="0 0 373 668" fill="none" xmlns="http://www.w3.org/2000/svg">
<path d="M217.82 293.648L217.255 296.665L220.323 296.608C242.982 296.187 269.732 295.766 296.486 295.346L296.505 295.345C321.38 294.954 346.258 294.563 367.847 294.171C326.412 355.395 284.99 416.62 243.567 477.844L243.448 478.02L243.411 478.075C203.312 537.342 163.214 596.609 123.105 655.875C129.998 619.234 136.892 582.601 143.786 545.968L143.861 545.566C151.523 504.852 159.184 464.138 166.846 423.411L167.403 420.449H164.389H22.5446C63.8805 355.236 105.216 290.035 146.552 224.834L146.566 224.813C186.396 161.987 226.226 99.1609 266.056 36.3244C258.433 77.014 250.801 117.713 243.169 158.412L243.135 158.593L243.088 158.848C234.661 203.785 226.234 248.723 217.82 293.648Z" stroke="white" stroke-width="5"/>
<path d="M199.82 269.648L199.255 272.665L202.323 272.608C224.982 272.187 251.732 271.766 278.486 271.346L278.505 271.345C303.38 270.954 328.258 270.563 349.847 270.171C308.412 331.395 266.99 392.62 225.567 453.844L225.448 454.02L225.411 454.075C185.312 513.342 145.214 572.609 105.105 631.875C111.998 595.234 118.892 558.601 125.786 521.968L125.861 521.566C133.523 480.852 141.184 440.138 148.846 399.411L149.403 396.449H146.389H4.54456C45.8805 331.236 87.2164 266.035 128.552 200.834L128.566 200.813C168.396 137.987 208.226 75.1609 248.056 12.3244C240.433 53.014 232.801 93.7129 225.169 134.412L225.135 134.593L225.088 134.848C216.661 179.785 208.234 224.723 199.82 269.648Z" stroke="white" stroke-width="5"/>
</svg>