<svg width="51" height="50" viewBox="0 0 51 50" fill="none" xmlns="http://www.w3.org/2000/svg">
<g clip-path="url(#clip0_1338_19275)">
<path d="M25.2482 50C38.7124 50 48.3303 45.2285 48.3303 34.6143C48.3303 23.0714 42.5589 17.225 31.0196 11.4535L36.0089 3.65353C36.2037 3.27716 36.2998 2.85747 36.2882 2.43381C36.2765 2.01015 36.1575 1.59638 35.9423 1.23127C35.7271 0.866153 35.4227 0.561651 35.0577 0.346292C34.6927 0.130934 34.279 0.0117682 33.8553 -3.85953e-05H17.5446C17.0922 -0.00861931 16.6459 0.105742 16.2534 0.330851C15.8609 0.555961 15.5369 0.883377 15.3158 1.27819C15.0948 1.673 14.985 2.1204 14.9982 2.57269C15.0115 3.02498 15.1472 3.46519 15.391 3.84639L19.4767 11.4535C7.94101 17.3035 2.16602 23.15 2.16602 34.6893C2.16602 45.2285 11.7839 50 25.2482 50Z" fill="#F3BF2B" fill-opacity="0.5"/>
<path fill-rule="evenodd" clip-rule="evenodd" d="M25.2482 15.2217C26.4803 15.2217 27.4803 16.2217 27.4803 17.4538V19.7288C28.7312 19.8676 29.9176 20.3564 30.9032 21.1392C31.8887 21.9219 32.6334 22.9668 33.0518 24.1538C33.1493 24.4303 33.1915 24.7233 33.1758 25.0161C33.1601 25.3088 33.0869 25.5956 32.9604 25.8601C32.8339 26.1246 32.6565 26.3616 32.4384 26.5575C32.2203 26.7534 31.9657 26.9045 31.6893 27.002C31.4128 27.0996 31.1198 27.1417 30.827 27.1261C30.5343 27.1104 30.2475 27.0372 29.983 26.9107C29.7185 26.7842 29.4815 26.6068 29.2856 26.3887C29.0897 26.1706 28.9386 25.916 28.8411 25.6395C28.6877 25.2034 28.4025 24.8258 28.0249 24.5589C27.6474 24.2921 27.1962 24.1493 26.7339 24.1503H23.2839C22.8483 24.1443 22.4261 24.301 22.0999 24.5898C21.7737 24.8785 21.5669 25.2786 21.52 25.7118C21.4731 26.1449 21.5895 26.5799 21.8463 26.9318C22.1032 27.2837 22.4821 27.5272 22.9089 27.6145L28.1696 28.7681C29.7224 29.1052 31.1047 29.9834 32.0696 31.2459C33.0344 32.5083 33.5189 34.0727 33.4365 35.6595C33.354 37.2463 32.71 38.7521 31.6196 39.9078C30.5291 41.0635 29.0632 41.7937 27.4839 41.9681V44.2395C27.4839 44.8315 27.2487 45.3993 26.8301 45.8179C26.4115 46.2365 25.8438 46.4717 25.2518 46.4717C24.6598 46.4717 24.092 46.2365 23.6734 45.8179C23.2548 45.3993 23.0196 44.8315 23.0196 44.2395V41.9681C21.7693 41.8277 20.5837 41.3383 19.5984 40.5557C18.6132 39.7732 17.868 38.7292 17.4482 37.5431C17.3506 37.2666 17.3085 36.9736 17.3242 36.6809C17.3399 36.3881 17.413 36.1013 17.5396 35.8368C17.6661 35.5723 17.8435 35.3354 18.0616 35.1394C18.2797 34.9435 18.5342 34.7924 18.8107 34.6949C19.0872 34.5973 19.3802 34.5552 19.6729 34.5709C19.9657 34.5866 20.2525 34.6597 20.517 34.7863C20.7815 34.9128 21.0184 35.0902 21.2144 35.3083C21.4103 35.5264 21.5614 35.7809 21.6589 36.0574C21.8133 36.4926 22.0989 36.8692 22.4763 37.1352C22.8537 37.4013 23.3043 37.5438 23.7661 37.5431H26.7411C27.2926 37.5444 27.8251 37.3414 28.2359 36.9734C28.6467 36.6053 28.9066 36.0982 28.9656 35.5498C29.0246 35.0014 28.8785 34.4506 28.5554 34.0035C28.2324 33.5565 27.7553 33.2449 27.2161 33.1288L21.9553 31.9788C20.475 31.6612 19.1615 30.8141 18.2615 29.5966C17.3616 28.3791 16.9371 26.8749 17.0678 25.3665C17.1984 23.8581 17.8753 22.4493 18.9712 21.4046C20.0671 20.36 21.5067 19.7514 23.0196 19.6931V17.4538C23.0196 16.2217 24.0161 15.2217 25.2482 15.2217Z" fill="#F3BF2B"/>
</g>
<defs>
<clipPath id="clip0_1338_19275">
<rect width="50" height="50" fill="white" transform="translate(0.248169)"/>
</clipPath>
</defs>
</svg>
