<svg width="50" height="50" viewBox="0 0 50 50" fill="none" xmlns="http://www.w3.org/2000/svg">
<path d="M5.35531 0C2.48388 0 -0.00183105 2.23214 -0.00183105 5.17857V25.1786C-0.00183105 28.125 2.48388 30.3571 5.35531 30.3571H44.641C47.5125 30.3571 49.9982 28.125 49.9982 25.1786V5.17857C49.9982 2.23214 47.5125 0 44.641 0H5.35531Z" fill="#F3BF2B" fill-opacity="0.5"/>
<path fill-rule="evenodd" clip-rule="evenodd" d="M18.3017 37.5002C18.3017 36.9082 18.0665 36.3405 17.6479 35.9218C17.2293 35.5032 16.6615 35.2681 16.0695 35.2681C15.4775 35.2681 14.9098 35.5032 14.4912 35.9218C14.0726 36.3405 13.8374 36.9082 13.8374 37.5002V44.6431C13.8374 45.2351 14.0726 45.8028 14.4912 46.2214C14.9098 46.64 15.4775 46.8752 16.0695 46.8752C16.6615 46.8752 17.2293 46.64 17.6479 46.2214C18.0665 45.8028 18.3017 45.2351 18.3017 44.6431V37.5002ZM33.9267 35.2681C35.1588 35.2681 36.1588 36.2681 36.1588 37.5002V44.6431C36.1588 45.2351 35.9237 45.8028 35.5051 46.2214C35.0864 46.64 34.5187 46.8752 33.9267 46.8752C33.3347 46.8752 32.7669 46.64 32.3483 46.2214C31.9297 45.8028 31.6945 45.2351 31.6945 44.6431V37.5002C31.6945 36.2681 32.6945 35.2681 33.9267 35.2681ZM24.9981 37.9466C26.2303 37.9466 27.2303 38.9466 27.2303 40.1788V47.3216C27.2303 47.9136 26.9951 48.4814 26.5765 48.9C26.1579 49.3186 25.5901 49.5538 24.9981 49.5538C24.4061 49.5538 23.8384 49.3186 23.4198 48.9C23.0011 48.4814 22.766 47.9136 22.766 47.3216V40.1788C22.766 38.9466 23.766 37.9466 24.9981 37.9466Z" fill="#F3BF2B"/>
<path fill-rule="evenodd" clip-rule="evenodd" d="M24.9981 22.3214C26.8925 22.3214 28.7094 21.5688 30.0489 20.2293C31.3884 18.8897 32.141 17.0729 32.141 15.1785C32.141 13.2841 31.3884 11.4673 30.0489 10.1277C28.7094 8.78819 26.8925 8.03564 24.9981 8.03564C23.1037 8.03564 21.2869 8.78819 19.9474 10.1277C18.6078 11.4673 17.8553 13.2841 17.8553 15.1785C17.8553 17.0729 18.6078 18.8897 19.9474 20.2293C21.2869 21.5688 23.1037 22.3214 24.9981 22.3214ZM9.81956 13.3928C10.1713 13.3928 10.5196 13.4621 10.8446 13.5967C11.1696 13.7313 11.4649 13.9286 11.7136 14.1773C11.9623 14.4261 12.1596 14.7213 12.2942 15.0463C12.4289 15.3713 12.4981 15.7196 12.4981 16.0714C12.4981 16.4231 12.4289 16.7714 12.2942 17.0964C12.1596 17.4214 11.9623 17.7167 11.7136 17.9654C11.4649 18.2141 11.1696 18.4114 10.8446 18.546C10.5196 18.6806 10.1713 18.7499 9.81956 18.7499C9.10916 18.7499 8.42786 18.4677 7.92553 17.9654C7.4232 17.4631 7.14099 16.7818 7.14099 16.0714C7.14099 15.361 7.4232 14.6797 7.92553 14.1773C8.42786 13.675 9.10916 13.3928 9.81956 13.3928ZM42.8553 16.0714C42.8553 15.361 42.5731 14.6797 42.0707 14.1773C41.5684 13.675 40.8871 13.3928 40.1767 13.3928C39.4663 13.3928 38.785 13.675 38.2827 14.1773C37.7803 14.6797 37.4981 15.361 37.4981 16.0714C37.4981 16.7818 37.7803 17.4631 38.2827 17.9654C38.785 18.4677 39.4663 18.7499 40.1767 18.7499C40.8871 18.7499 41.5684 18.4677 42.0707 17.9654C42.5731 17.4631 42.8553 16.7818 42.8553 16.0714Z" fill="#F3BF2B"/>
</svg>
