<svg width="51" height="50" viewBox="0 0 51 50" fill="none" xmlns="http://www.w3.org/2000/svg">
<g clip-path="url(#clip0_1338_19297)">
<path fill-rule="evenodd" clip-rule="evenodd" d="M12.7518 2.78223H12.7053C11.8293 2.80614 10.9711 3.03506 10.1995 3.45061C9.42794 3.86616 8.76452 4.45679 8.26248 5.17508L1.77319 14.1644L1.76248 14.1787C1.05368 15.181 0.698154 16.3904 0.751815 17.6169C0.805475 18.8433 1.26528 20.0171 2.05891 20.9537L21.5268 45.1644C22.0274 45.8063 22.6678 46.3255 23.3993 46.6827C24.1308 47.0398 24.9342 47.2255 25.7482 47.2255C26.5622 47.2255 27.3655 47.0398 28.0971 46.6827C28.8286 46.3255 29.469 45.8063 29.9696 45.1644L49.4339 20.9537C50.2281 20.0175 50.6885 18.8439 50.7428 17.6175C50.7971 16.391 50.4422 15.1813 49.7339 14.1787L49.7232 14.1644L43.2339 5.18223C42.7319 4.46393 42.0684 3.87331 41.2969 3.45775C40.5253 3.0422 39.6671 2.81328 38.791 2.78937V2.7858H12.7553L12.7518 2.78223Z" fill="#F3BF2B" fill-opacity="0.5"/>
<path fill-rule="evenodd" clip-rule="evenodd" d="M0.941021 15.9574H12.5589L18.7089 2.78595H23.6339L17.4803 15.9645H34.0874L27.9624 2.77881H32.8803L39.0089 15.9574H50.5553C50.754 16.7106 50.7915 17.4972 50.6653 18.2659C50.5391 19.0345 50.2522 19.7679 49.8232 20.4181H39.1053L32.3339 42.2145L29.966 45.161C29.5039 45.7532 28.9223 46.2416 28.2589 46.5942C27.5956 46.9468 26.8655 47.1557 26.116 47.2074L34.4303 20.4217H17.141L25.4946 47.2145C24.725 47.1774 23.9725 46.9748 23.2883 46.6204C22.6042 46.266 22.0045 45.7682 21.5303 45.161L19.3267 42.4109L12.4696 20.4217H1.67316C1.24365 19.7711 0.956408 19.0371 0.830239 18.2677C0.70407 17.4984 0.741821 16.7111 0.941021 15.9574Z" fill="#F3BF2B"/>
</g>
<defs>
<clipPath id="clip0_1338_19297">
<rect width="50" height="50" fill="white" transform="translate(0.748169)"/>
</clipPath>
</defs>
</svg>
