<svg width="726" height="79" viewBox="0 0 726 79" fill="none" xmlns="http://www.w3.org/2000/svg">
<path d="M334.829 22.6H307.821L303.981 33.2879L297.453 35.4H327.341C326.253 38.28 322.989 41.7999 317.869 41.7999H300.845L296.941 52.4879L290.413 54.5999H328.173L325.869 61H287.789C282.477 61 283.309 58.312 284.589 54.792L296.301 22.6C297.645 19.016 298.669 16.2 304.109 16.2H344.301C343.213 19.08 339.949 22.6 334.829 22.6ZM350.041 61H336.665L358.233 38.5999L352.921 16.2H366.361L370.521 33.672L365.849 35.4H371.545L390.105 16.2H403.545L381.849 38.5999L387.161 61H373.785L369.177 41.7999H368.601L350.041 61ZM413.902 43.08L407.374 61H401.294C395.982 61 396.814 58.312 398.094 54.792L409.806 22.6C411.15 19.016 412.174 16.2 417.614 16.2H448.398C454.798 16.2 457.358 17.352 455.438 22.6L450.254 36.872C448.014 43.08 442.894 43.08 436.494 43.08H413.902ZM440.526 22.6H421.326L416.974 34.568L410.446 36.68H435.406C437.646 36.68 439.118 35.848 439.95 33.608L442.958 25.288C443.79 23.048 442.766 22.6 440.526 22.6ZM477.947 16.2L464.699 52.4879L458.171 54.5999H495.931L493.627 61H455.547C450.235 61 451.067 58.312 452.347 54.792L464.059 22.6C465.403 19.016 466.427 16.2 471.867 16.2H477.947ZM504.536 54.792L516.248 22.6C517.592 19.016 518.616 16.2 524.056 16.2H558.808C564.248 16.2 563.224 19.016 561.88 22.6L550.168 54.792C548.888 58.312 547.8 61 542.488 61H507.736C502.424 61 503.256 58.312 504.536 54.792ZM510.36 54.5999H538.712L550.36 22.6H527.768L516.888 52.4879L510.36 54.5999ZM574.597 43.08L568.069 61H561.989C556.677 61 557.509 58.312 558.789 54.792L570.501 22.6C571.845 19.016 572.869 16.2 578.309 16.2H609.093C615.493 16.2 618.053 17.352 616.133 22.6L610.949 36.872C609.285 41.544 606.277 42.7599 602.181 43.0159L603.909 61H591.045L589.765 43.08H574.597ZM601.221 22.6H582.021L577.669 34.568L571.141 36.68H596.101C598.341 36.68 599.813 35.848 600.645 33.608L603.653 25.288C604.485 23.048 603.461 22.6 601.221 22.6ZM663.782 22.6H636.774L632.934 33.2879L626.406 35.4H656.294C655.206 38.28 651.942 41.7999 646.822 41.7999H629.798L625.894 52.4879L619.366 54.5999H657.126L654.822 61H616.742C611.43 61 612.262 58.312 613.542 54.792L625.254 22.6C626.598 19.016 627.622 16.2 633.062 16.2H673.254C672.166 19.08 668.902 22.6 663.782 22.6ZM682.352 43.08L675.824 61H669.744C664.432 61 665.264 58.312 666.544 54.792L678.256 22.6C679.6 19.016 680.624 16.2 686.064 16.2H716.848C723.248 16.2 725.808 17.352 723.888 22.6L718.704 36.872C717.04 41.544 714.032 42.7599 709.936 43.0159L711.664 61H698.8L697.52 43.08H682.352ZM708.976 22.6H689.776L685.424 34.568L678.896 36.68H703.856C706.096 36.68 707.568 35.848 708.4 33.608L711.408 25.288C712.24 23.048 711.216 22.6 708.976 22.6Z" fill="black"/>
<path d="M30.906 60.9327C27.5746 60.9446 26.5512 58.608 25.2557 55.7223C21.8807 48.127 18.4949 40.5199 15.1091 32.9127C13.3563 42.2488 11.6143 51.5968 9.8725 60.9446C8.01082 60.9566 6.17093 60.9446 4.3093 60.9327C-0.491811 60.9566 -0.0998818 58.1426 0.553331 54.4823C2.61095 43.2861 4.69034 32.09 6.78065 20.9057C7.49916 17.1618 8.0544 14.2405 13.0623 14.2405C14.9131 14.2405 16.7747 14.2405 18.6473 14.2405C23.0565 23.9701 27.4875 33.6996 31.8966 43.465C30.416 44.0373 28.9354 44.6097 27.4439 45.182C29.1967 45.1939 30.9604 45.1939 32.7132 45.1939C34.2373 37.0978 35.7615 29.0018 37.3074 20.8938C38.0804 17.1618 38.6356 14.2405 43.6327 14.2405C45.4944 14.2405 47.3669 14.2405 49.2286 14.2405C46.6266 27.6425 44.0355 41.0565 41.4662 54.4704C40.5626 59.2039 38.0913 60.9446 34.4115 60.9446C33.2357 60.9446 32.0708 60.9446 30.906 60.9327Z" fill="black"/>
<path d="M75.921 31.073C77.8606 20.7173 79.8059 10.3558 81.7455 0C72.0475 15.3001 62.3495 30.5946 52.6514 45.8947H69.4918C67.729 55.265 65.9663 64.6297 64.2035 74C73.9529 59.5942 83.6965 45.1884 93.4459 30.7825C88.2318 30.8794 81.1351 30.9762 75.921 31.073Z" fill="#FFCC00"/>
<path d="M113.892 60.2039H107.583C106.208 60.2039 105.175 60.0387 104.473 59.7083C103.772 59.378 103.293 58.9223 103.042 58.3526C102.785 57.7773 102.699 57.1052 102.785 56.3305C102.87 55.5558 102.985 54.707 103.133 53.7785L109.414 20.4326H91.8828C92.014 19.6807 92.2707 18.9175 92.6415 18.1485C93.0123 17.3738 93.5086 16.6674 94.1247 16.0237C94.7408 15.3857 95.5224 14.8561 96.4694 14.4345C97.4107 14.013 98.5516 13.8022 99.8751 13.8022H140.579C140.447 14.5542 140.157 15.3174 139.723 16.0921C139.284 16.8668 138.713 17.5732 138.006 18.2168C137.298 18.8548 136.443 19.3903 135.433 19.8061C134.423 20.2276 133.254 20.4383 131.925 20.4383H121.371L118.513 35.8866L112.124 38.074H118.096L113.898 60.2153L113.892 60.2039Z" fill="black"/>
<path d="M153.728 60.2038H147.419C146.044 60.2038 145.011 60.0386 144.31 59.7083C143.608 59.3779 143.129 58.9222 142.878 58.3526C142.621 57.7772 142.535 57.1051 142.621 56.3304C142.707 55.5557 142.821 54.707 142.969 53.7785L149.25 20.4326C149.438 19.5041 149.638 18.6326 149.849 17.8123C150.06 16.9978 150.396 16.2857 150.87 15.6933C151.338 15.0952 151.988 14.6338 152.815 14.3034C153.642 13.9731 154.761 13.8079 156.181 13.8079H188.116C189.799 13.8079 191.231 13.899 192.412 14.0756C193.593 14.2522 194.54 14.5826 195.241 15.0724C195.943 15.5623 196.411 16.2345 196.628 17.0946C196.844 17.9547 196.833 19.0712 196.588 20.444L193.815 35.2258C193.581 36.422 193.239 37.4131 192.783 38.2106C192.326 39.0081 191.761 39.6461 191.094 40.1359C190.427 40.6201 189.645 40.9676 188.749 41.1613C187.854 41.3606 186.884 41.503 185.84 41.5942L190.911 60.2266H177.568L172.97 41.6625H157.236L153.734 60.2266L153.728 60.2038ZM161.196 20.4269L158.862 32.8219L152.473 35.0093H178.367C179.519 35.0093 180.438 34.7701 181.128 34.2802C181.818 33.796 182.28 32.9757 182.52 31.8251L184.123 23.2067C184.362 22.056 184.208 21.3041 183.661 20.951C183.113 20.5978 182.263 20.4212 181.111 20.4212H161.19L161.196 20.4269Z" fill="black"/>
<path d="M202.064 53.7728L208.345 20.427C208.533 19.4985 208.733 18.6269 208.944 17.8067C209.155 16.9921 209.492 16.2801 209.965 15.6877C210.433 15.0896 211.083 14.6282 211.911 14.2978C212.738 13.9674 213.856 13.8022 215.276 13.8022H251.33C252.745 13.8022 253.806 13.9674 254.508 14.2978C255.209 14.6282 255.677 15.0953 255.917 15.6877C256.156 16.2858 256.225 16.9921 256.122 17.8067C256.025 18.6269 255.877 19.4985 255.689 20.427L249.408 53.7728C249.259 54.7013 249.065 55.55 248.826 56.3247C248.586 57.0994 248.238 57.7716 247.788 58.3469C247.337 58.9222 246.698 59.3723 245.871 59.7026C245.044 60.033 243.943 60.1982 242.573 60.1982H206.52C205.145 60.1982 204.112 60.033 203.411 59.7026C202.709 59.3723 202.23 58.9165 201.979 58.3469C201.722 57.7716 201.636 57.0994 201.722 56.3247C201.807 55.55 201.922 54.7013 202.07 53.7728H202.064ZM237.485 53.5734L243.731 20.427H220.296L214.461 51.3861L208.071 53.5734H237.485Z" fill="black"/>
</svg>
