<svg width="51" height="50" viewBox="0 0 51 50" fill="none" xmlns="http://www.w3.org/2000/svg">
<g clip-path="url(#clip0_1338_19284)">
<path fill-rule="evenodd" clip-rule="evenodd" d="M26.2374 1.70709C26.0053 1.60151 25.7532 1.54687 25.4982 1.54688C25.2431 1.54687 24.991 1.60151 24.7589 1.70709L14.7553 6.26424C14.4433 6.40612 14.1788 6.63478 13.9932 6.92293C13.8077 7.21107 13.709 7.54652 13.7089 7.88924V20.0321C13.7083 20.3754 13.8067 20.7116 13.9923 21.0005C14.1779 21.2893 14.4428 21.5185 14.7553 21.6607L24.7553 26.2142C24.9879 26.3204 25.2407 26.3753 25.4964 26.3753C25.7521 26.3753 26.0048 26.3204 26.2374 26.2142L36.241 21.6607C36.553 21.5188 36.8175 21.2901 37.0031 21.002C37.1886 20.7138 37.2873 20.3784 37.2874 20.0357V7.88924C37.2873 7.54652 37.1886 7.21107 37.0031 6.92293C36.8175 6.63478 36.553 6.40612 36.241 6.26424L26.241 1.70709H26.2374Z" fill="#F3BF2B" fill-opacity="0.5"/>
<path fill-rule="evenodd" clip-rule="evenodd" d="M35.5946 5.96777L25.491 10.5713L15.3946 5.97134L14.7553 6.2642C14.4433 6.40609 14.1788 6.63475 13.9932 6.92289C13.8077 7.21103 13.709 7.54648 13.7089 7.8892V9.12849L23.7089 13.6821V24.9999C23.7077 25.2882 23.7763 25.5725 23.9089 25.8285L24.7589 26.2142C24.991 26.3198 25.2431 26.3744 25.4981 26.3744C25.7532 26.3744 26.0053 26.3198 26.2374 26.2142L27.0696 25.8356C27.206 25.5782 27.2772 25.2912 27.2767 24.9999V13.6785L37.2874 9.12492V7.8892C37.2873 7.54648 37.1886 7.21103 37.0031 6.92289C36.8175 6.63475 36.553 6.40609 36.241 6.2642L35.5981 5.96777H35.5946Z" fill="#F3BF2B"/>
<path fill-rule="evenodd" clip-rule="evenodd" d="M39.2839 24.418C39.0518 24.3124 38.7997 24.2578 38.5447 24.2578C38.2896 24.2578 38.0375 24.3124 37.8054 24.418L27.8018 28.9752C27.4898 29.1171 27.2253 29.3457 27.0397 29.6339C26.8542 29.922 26.7555 30.2575 26.7554 30.6002V42.743C26.7548 43.0864 26.8532 43.4226 27.0388 43.7114C27.2244 44.0003 27.4893 44.2295 27.8018 44.3716L37.8018 48.9252C38.0344 49.0313 38.2872 49.0862 38.5429 49.0862C38.7986 49.0862 39.0513 49.0313 39.2839 48.9252L49.2839 44.3716C49.5966 44.2302 49.8619 44.0018 50.0481 43.7136C50.2343 43.4254 50.3335 43.0897 50.3339 42.7466V30.6002C50.3339 30.2575 50.2351 29.922 50.0496 29.6339C49.864 29.3457 49.5995 29.1171 49.2875 28.9752L39.2875 24.418H39.2839Z" fill="#F3BF2B" fill-opacity="0.5"/>
<path fill-rule="evenodd" clip-rule="evenodd" d="M48.6411 28.6787L38.5339 33.2859L28.4446 28.6787L27.8018 28.9716C27.4905 29.114 27.2267 29.3429 27.0418 29.631C26.8569 29.9191 26.7587 30.2542 26.7589 30.5966V31.8359L36.7553 36.3894V48.443L37.8089 48.9216C38.0411 49.0272 38.2932 49.0818 38.5482 49.0818C38.8032 49.0818 39.0553 49.0272 39.2875 48.9216L40.3232 48.4501V36.393L50.3375 31.8323V30.6001C50.3374 30.2574 50.2387 29.922 50.0531 29.6338C49.8676 29.3457 49.603 29.117 49.2911 28.9751L48.6482 28.6787H48.6411Z" fill="#F3BF2B"/>
<path fill-rule="evenodd" clip-rule="evenodd" d="M13.191 24.418C12.9589 24.3124 12.7068 24.2578 12.4518 24.2578C12.1967 24.2578 11.9446 24.3124 11.7125 24.418L1.71248 28.9752C1.39984 29.1165 1.13455 29.345 0.94834 29.6332C0.762129 29.9213 0.662885 30.2571 0.662478 30.6002V42.743C0.661887 43.0864 0.76028 43.4226 0.945871 43.7114C1.13146 44.0003 1.39639 44.2295 1.70891 44.3716L11.7125 48.9252C11.9446 49.0308 12.1967 49.0854 12.4518 49.0854C12.7068 49.0854 12.9589 49.0308 13.191 48.9252L23.1946 44.3716C23.5066 44.2297 23.7711 44.0011 23.9567 43.7129C24.1422 43.4248 24.241 43.0893 24.2411 42.7466V30.6002C24.241 30.2575 24.1422 29.922 23.9567 29.6339C23.7711 29.3457 23.5066 29.1171 23.1946 28.9752L13.1946 24.418H13.191Z" fill="#F3BF2B" fill-opacity="0.5"/>
<path fill-rule="evenodd" clip-rule="evenodd" d="M22.5482 28.6787L12.4446 33.2859L2.34819 28.6787L1.7089 28.9716C1.39694 29.1135 1.13239 29.3421 0.946836 29.6303C0.761285 29.9184 0.66257 30.2538 0.662476 30.5966V31.8359L10.6625 36.3894V48.443L11.7125 48.9216C11.9446 49.0272 12.1967 49.0818 12.4518 49.0818C12.7068 49.0818 12.9589 49.0272 13.191 48.9216L14.2303 48.4501V36.393L24.241 31.8359V30.6001C24.241 30.2574 24.1422 29.922 23.9567 29.6338C23.7711 29.3457 23.5066 29.117 23.1946 28.9751L22.5518 28.6787H22.5482Z" fill="#F3BF2B"/>
</g>
<defs>
<clipPath id="clip0_1338_19284">
<rect width="50" height="50" fill="white" transform="translate(0.498169)"/>
</clipPath>
</defs>
</svg>
