<svg xmlns="http://www.w3.org/2000/svg" width="256" height="74" viewBox="0 0 256 74" fill="none">
  <path d="M30.738 60.9328C27.4066 60.9447 26.3833 58.6081 25.0877 55.7224C21.7127 48.1271 18.3269 40.52 14.9411 32.9128C13.1883 42.2489 11.4464 51.5969 9.70453 60.9447C7.84285 60.9567 6.00297 60.9447 4.14134 60.9328C-0.65978 60.9567 -0.267851 58.1427 0.385362 54.4824C2.44299 43.2862 4.52238 32.0901 6.61269 20.9058C7.3312 17.1619 7.88644 14.2406 12.8944 14.2406C14.7452 14.2406 16.6068 14.2406 18.4794 14.2406C22.8885 23.9702 27.3195 33.6997 31.7287 43.4651C30.2481 44.0374 28.7675 44.6098 27.276 45.1821C29.0288 45.194 30.7924 45.194 32.5452 45.194C34.0693 37.0979 35.5935 29.0019 37.1395 20.8939C37.9124 17.1619 38.4677 14.2406 43.4647 14.2406C45.3264 14.2406 47.1989 14.2406 49.0606 14.2406C46.4586 27.6426 43.8675 41.0566 41.2983 54.4705C40.3946 59.204 37.9233 60.9447 34.2436 60.9447C33.0678 60.9447 31.9029 60.9447 30.738 60.9328Z" fill="white"/>
  <path d="M75.753 31.073C77.6926 20.7173 79.6379 10.3558 81.5775 0C71.8795 15.3001 62.1814 30.5946 52.4834 45.8947H69.3237C67.561 55.265 65.7982 64.6297 64.0355 74C73.7848 59.5942 83.5285 45.1884 93.2779 30.7825C88.0637 30.8794 80.9671 30.9762 75.753 31.073Z" fill="#FFCC00"/>
  <path d="M113.724 60.2039H107.414C106.039 60.2039 105.007 60.0387 104.305 59.7083C103.603 59.378 103.124 58.9223 102.873 58.3526C102.617 57.7773 102.531 57.1052 102.617 56.3305C102.702 55.5558 102.816 54.707 102.965 53.7785L109.245 20.4326H91.7148C91.8461 19.6807 92.1028 18.9175 92.4736 18.1485C92.8444 17.3738 93.3407 16.6674 93.9568 16.0237C94.5729 15.3857 95.3545 14.8561 96.3014 14.4345C97.2427 14.013 98.3837 13.8022 99.7072 13.8022H140.41C140.279 14.5542 139.988 15.3174 139.555 16.0921C139.115 16.8668 138.545 17.5732 137.838 18.2168C137.13 18.8548 136.274 19.3903 135.265 19.8061C134.255 20.2276 133.085 20.4383 131.756 20.4383H121.203L118.344 35.8866L111.955 38.074H117.928L113.729 60.2153L113.724 60.2039Z" fill="white"/>
  <path d="M153.56 60.2038H147.25C145.875 60.2038 144.843 60.0386 144.141 59.7083C143.439 59.3779 142.96 58.9222 142.709 58.3526C142.452 57.7772 142.367 57.1051 142.452 56.3304C142.538 55.5557 142.652 54.707 142.8 53.7785L149.081 20.4326C149.27 19.5041 149.469 18.6326 149.68 17.8123C149.891 16.9978 150.228 16.2857 150.702 15.6933C151.169 15.0952 151.82 14.6338 152.647 14.3034C153.474 13.9731 154.592 13.8079 156.013 13.8079H187.948C189.631 13.8079 191.062 13.899 192.243 14.0756C193.424 14.2522 194.371 14.5826 195.073 15.0724C195.775 15.5623 196.242 16.2345 196.459 17.0946C196.676 17.9547 196.664 19.0712 196.419 20.444L193.647 35.2258C193.413 36.422 193.071 37.4131 192.614 38.2106C192.158 39.0081 191.593 39.6461 190.926 40.1359C190.258 40.6201 189.477 40.9676 188.581 41.1613C187.685 41.3606 186.715 41.503 185.671 41.5942L190.743 60.2266H177.4L172.802 41.6625H157.068L153.565 60.2266L153.56 60.2038ZM161.027 20.4269L158.694 32.8219L152.305 35.0093H178.198C179.351 35.0093 180.269 34.7701 180.959 34.2802C181.65 33.796 182.112 32.9757 182.351 31.8251L183.954 23.2067C184.194 22.056 184.04 21.3041 183.492 20.951C182.945 20.5978 182.095 20.4212 180.942 20.4212H161.021L161.027 20.4269Z" fill="white"/>
  <path d="M201.896 53.7728L208.177 20.427C208.365 19.4985 208.565 18.6269 208.776 17.8067C208.987 16.9921 209.323 16.2801 209.797 15.6877C210.265 15.0896 210.915 14.6282 211.742 14.2978C212.569 13.9674 213.688 13.8022 215.108 13.8022H251.162C252.577 13.8022 253.638 13.9674 254.339 14.2978C255.041 14.6282 255.509 15.0953 255.748 15.6877C255.988 16.2858 256.056 16.9921 255.954 17.8067C255.857 18.6269 255.709 19.4985 255.52 20.427L249.239 53.7728C249.091 54.7013 248.897 55.55 248.657 56.3247C248.418 57.0994 248.07 57.7716 247.619 58.3469C247.169 58.9222 246.53 59.3723 245.702 59.7026C244.875 60.033 243.774 60.1982 242.405 60.1982H206.351C204.976 60.1982 203.944 60.033 203.242 59.7026C202.54 59.3723 202.061 58.9165 201.81 58.3469C201.554 57.7716 201.468 57.0994 201.554 56.3247C201.639 55.55 201.753 54.7013 201.902 53.7728H201.896ZM237.316 53.5734L243.563 20.427H220.128L214.292 51.3861L207.903 53.5734H237.316Z" fill="white"/>
</svg>