<svg xmlns="http://www.w3.org/2000/svg" width="151" height="54" viewBox="0 0 151 54" fill="none">
  <g clip-path="url(#clip0_727_6175)">
    <path d="M93.4322 46.2528C93.5645 46.0924 93.7349 45.9621 93.9434 45.8619C94.1518 45.7617 94.3783 45.7116 94.6229 45.7116C94.8714 45.7116 95.0899 45.7657 95.2783 45.8739C95.4708 45.9782 95.6191 46.1305 95.7233 46.331C95.8275 46.5314 95.8797 46.7659 95.8797 47.0345C95.8797 47.1588 95.8676 47.2871 95.8436 47.4194C95.7834 47.7601 95.6632 48.0628 95.4828 48.3274C95.3024 48.588 95.0839 48.7904 94.8273 48.9347C94.5708 49.0791 94.3022 49.1512 94.0215 49.1512C93.773 49.1512 93.5625 49.1031 93.3901 49.0069C93.2177 48.9067 93.0915 48.7784 93.0113 48.622L92.9271 49.0971H92.0792L92.867 44.6472H93.7149L93.4322 46.2528ZM94.9837 47.4194C94.9957 47.3392 95.0017 47.267 95.0017 47.2029C95.0017 46.9664 94.9336 46.782 94.7973 46.6497C94.661 46.5174 94.4866 46.4512 94.2741 46.4512C94.1218 46.4512 93.9714 46.4913 93.8231 46.5715C93.6748 46.6477 93.5465 46.7599 93.4382 46.9082C93.33 47.0566 93.2578 47.231 93.2218 47.4314C93.2057 47.5356 93.1977 47.6118 93.1977 47.6599C93.1977 47.8964 93.2659 48.0808 93.4022 48.2131C93.5425 48.3454 93.7169 48.4116 93.9253 48.4116C94.0817 48.4116 94.234 48.3715 94.3823 48.2913C94.5307 48.2111 94.659 48.0969 94.7672 47.9486C94.8754 47.8002 94.9476 47.6238 94.9837 47.4194ZM97.3032 45.7657L97.7482 48.0929L99.041 45.7657H99.937L97.0085 50.6726H96.1125L97.1228 49.0129L96.3591 45.7657H97.3032Z" fill="white"/>
    <mask id="mask0_727_6175" style="mask-type:luminance" maskUnits="userSpaceOnUse" x="101" y="38" width="45" height="16">
      <path d="M145.811 38.1047H101.126V53.4819H145.811V38.1047Z" fill="white"/>
    </mask>
    <g mask="url(#mask0_727_6175)">
      <path d="M104.718 47.837C104.628 47.837 104.555 47.837 104.465 47.7468L103.126 46.4078C103.09 46.3718 103.071 46.3537 103.071 46.3176C103.053 46.2996 103.035 46.2271 103.053 46.1546C103.053 46.1185 103.071 46.1005 103.09 46.0825C103.108 46.0644 103.126 46.046 103.144 46.028C103.18 45.9919 103.198 45.9558 103.216 45.9378C103.542 45.6301 103.849 45.3224 104.175 45.0331C104.899 44.3276 105.622 43.622 106.346 42.9164C106.346 42.8803 106.4 42.6632 106.563 42.6091C106.617 42.5907 106.69 42.5907 106.726 42.5907C106.816 42.5907 106.889 42.5907 106.979 42.6812L108.39 44.0199C108.445 44.0924 108.499 44.1829 108.48 44.2731C108.462 44.3636 108.372 44.4181 108.336 44.4361C108.173 44.5267 107.667 45.0331 106.707 46.046C106.129 46.607 105.568 47.1679 104.989 47.7104C104.971 47.7288 104.953 47.7829 104.899 47.819C104.844 47.837 104.79 47.837 104.718 47.837Z" fill="#AF145B"/>
      <path d="M108.373 41.3429L105.623 38.6837C105.206 38.358 104.7 38.1047 104.121 38.1047C103.542 38.1047 102.963 38.358 102.547 38.7742C102.385 38.8644 102.385 38.9369 102.385 39.0275C102.385 39.1177 102.385 39.1901 102.475 39.2807L106.22 42.8626C106.31 42.9532 106.383 42.9532 106.383 43.0253C107.215 43.9481 107.305 45.2687 106.545 46.1914L108.373 44.4365C108.788 44.1108 109.042 43.5138 109.042 42.9348C109.042 42.3562 108.788 41.7592 108.373 41.3429Z" fill="url(#paint0_linear_727_6175)"/>
      <path d="M105.135 47.3489C104.303 46.4262 104.212 45.1056 105.044 44.1829L103.217 45.9378C102.801 46.354 102.548 46.9326 102.548 47.5116C102.548 48.0905 102.801 48.6695 103.217 49.0854L107.215 53.1561C107.306 53.2463 107.378 53.2463 107.469 53.2463C107.559 53.2463 107.631 53.2463 107.721 53.1561C108.138 52.7399 108.391 52.1609 108.391 51.582C108.391 51.0034 108.138 50.4244 107.721 50.0081L105.225 47.5116C105.207 47.4211 105.135 47.4211 105.135 47.3489Z" fill="url(#paint1_linear_727_6175)"/>
      <path d="M114.658 45.1958C114.785 44.8704 114.966 44.6353 115.255 44.4722C115.526 44.3095 115.852 44.237 116.178 44.237V45.6662C115.78 45.6121 115.436 45.7026 115.11 45.9014C114.803 46.1005 114.658 46.4443 114.658 46.9327V49.3207H113.374V44.3276H114.658V45.1958ZM121.985 48.7237C121.478 49.2301 120.845 49.4834 120.103 49.4834C119.362 49.4834 118.747 49.2301 118.222 48.7237C117.716 48.2172 117.462 47.5838 117.462 46.8422C117.462 46.1005 117.716 45.4855 118.222 44.979C118.729 44.4722 119.362 44.201 120.103 44.201C120.845 44.201 121.46 44.4542 121.985 44.979C122.491 45.4855 122.762 46.1005 122.762 46.8422C122.762 47.5838 122.51 48.1992 121.985 48.7237ZM119.145 47.8374C119.398 48.0906 119.723 48.2353 120.122 48.2353C120.519 48.2353 120.827 48.1086 121.099 47.8374C121.352 47.5838 121.496 47.2404 121.496 46.8422C121.496 46.4443 121.369 46.1186 121.099 45.8473C120.845 45.5941 120.519 45.4494 120.122 45.4494C119.723 45.4494 119.416 45.576 119.145 45.8473C118.891 46.1005 118.765 46.4443 118.765 46.8422C118.765 47.2404 118.891 47.5658 119.145 47.8374ZM127.955 44.3456H129.239V49.3387H127.955V48.7778C127.647 49.2482 127.141 49.4834 126.471 49.4834C125.928 49.4834 125.476 49.3026 125.115 48.9408C124.753 48.579 124.59 48.0722 124.59 47.4211V44.3637H125.874V47.2765C125.874 47.6022 125.965 47.8735 126.146 48.0542C126.327 48.2353 126.562 48.3074 126.869 48.3074C127.195 48.3074 127.466 48.1992 127.665 48.0001C127.864 47.801 127.973 47.4752 127.973 47.0774L127.955 44.3456ZM134.286 45.576H133.147V47.6563C133.147 47.8374 133.183 47.964 133.273 48.0362C133.364 48.1086 133.491 48.1628 133.653 48.1808C133.816 48.1808 134.033 48.1808 134.268 48.1628V49.3387C133.382 49.4473 132.749 49.3568 132.387 49.0855C132.025 48.8142 131.844 48.3438 131.844 47.6563V45.576H130.976V44.3456H131.844V43.3327L133.129 42.9348V44.3276H134.25V45.576H134.286ZM137.127 47.367C137.308 48.0001 137.778 48.3074 138.538 48.3074C139.027 48.3074 139.406 48.1447 139.659 47.801L140.69 48.398C140.202 49.1035 139.478 49.4653 138.52 49.4653C137.688 49.4653 137.036 49.2121 136.53 48.7237C136.023 48.2172 135.788 47.6022 135.788 46.8422C135.788 46.0825 136.042 45.4674 136.53 44.9607C137.018 44.4542 137.651 44.201 138.429 44.201C139.153 44.201 139.768 44.4542 140.239 44.9607C140.709 45.4674 140.962 46.1005 140.962 46.8422C140.962 47.0052 140.944 47.1859 140.908 47.367H137.127ZM137.108 46.3718H139.659C139.587 46.028 139.424 45.7748 139.207 45.6121C138.972 45.4494 138.719 45.3589 138.429 45.3589C138.085 45.3589 137.796 45.4494 137.579 45.6301C137.325 45.8112 137.181 46.0464 137.108 46.3718ZM144.128 45.1958C144.255 44.8704 144.435 44.6353 144.725 44.4722C144.996 44.3095 145.322 44.237 145.648 44.237V45.6662C145.249 45.6121 144.906 45.7026 144.58 45.9014C144.272 46.1005 144.128 46.4443 144.128 46.9327V49.3207H142.843V44.3276H144.128V45.1958Z" fill="#CB0766"/>
    </g>
    <path d="M18.5006 36.4244C16.5497 36.4314 15.9504 35.061 15.1917 33.3686C13.2153 28.9141 11.2325 24.4526 9.24971 19.9911C8.22326 25.4666 7.20316 30.949 6.1831 36.4314C5.09287 36.4384 4.01541 36.4314 2.92522 36.4244C0.113625 36.4384 0.343143 34.7881 0.725673 32.6413C1.93064 26.075 3.14836 19.5086 4.37247 12.9492C4.79324 10.7534 5.1184 9.04016 8.05111 9.04016C9.13496 9.04016 10.2251 9.04016 11.3217 9.04016C13.9038 14.7464 16.4987 20.4526 19.0807 26.1799C18.2137 26.5155 17.3466 26.8512 16.4732 27.1868C17.4996 27.1938 18.5324 27.1938 19.5589 27.1938C20.4514 22.4456 21.344 17.6974 22.2493 12.9422C22.702 10.7534 23.0272 9.04016 25.9535 9.04016C27.0437 9.04016 28.1403 9.04016 29.2305 9.04016C27.7068 16.9002 26.1894 24.7673 24.6848 32.6343C24.1556 35.4104 22.7084 36.4314 20.5535 36.4314C19.8649 36.4314 19.1827 36.4314 18.5006 36.4244Z" fill="white"/>
    <path d="M44.8619 18.9121C45.9978 12.8386 47.137 6.76173 48.2728 0.688232C42.5936 9.66151 36.9143 18.6314 31.235 27.6047H41.0969C40.0646 33.1003 39.0323 38.5925 38 44.088C43.7094 35.6392 49.4154 27.1905 55.1247 18.7417C52.0713 18.7985 47.9154 18.8553 44.8619 18.9121Z" fill="#FFCC00"/>
    <path d="M67.098 35.9967H63.4031C62.598 35.9967 61.9933 35.8998 61.5824 35.706C61.1715 35.5122 60.8909 35.245 60.7439 34.9109C60.5935 34.5735 60.5434 34.1793 60.5935 33.7249C60.6436 33.2706 60.7105 32.7728 60.7973 32.2283L64.4755 12.6714H54.2094C54.2862 12.2305 54.4365 11.7828 54.6537 11.3318C54.8708 10.8775 55.1615 10.4632 55.5223 10.0857C55.8831 9.71153 56.3408 9.40088 56.8953 9.15366C57.4465 8.90645 58.1147 8.78284 58.8897 8.78284H82.7261C82.6492 9.22382 82.4788 9.67145 82.2249 10.1258C81.9677 10.5801 81.6336 10.9944 81.2194 11.3719C80.8051 11.7461 80.304 12.0601 79.7127 12.304C79.1214 12.5512 78.4365 12.6748 77.6581 12.6748H71.4777L69.804 21.7349L66.0624 23.0178H69.5601L67.1013 36.0033L67.098 35.9967Z" fill="white"/>
    <path d="M90.4266 35.9967H86.7317C85.9266 35.9967 85.3219 35.8999 84.911 35.7061C84.5001 35.5123 84.2194 35.2451 84.0724 34.911C83.9221 34.5736 83.872 34.1794 83.9221 33.725C83.9722 33.2707 84.039 32.7729 84.1259 32.2284L87.8041 12.6716C87.9143 12.127 88.0312 11.6159 88.1549 11.1348C88.2785 10.6571 88.4756 10.2395 88.7528 9.89205C89.0268 9.54127 89.4076 9.27067 89.892 9.0769C90.3764 8.88314 91.0312 8.78625 91.8631 8.78625H110.565C111.55 8.78625 112.389 8.83971 113.08 8.94327C113.772 9.04683 114.326 9.2406 114.737 9.5279C115.148 9.81521 115.422 10.2094 115.549 10.7139C115.676 11.2183 115.669 11.8731 115.526 12.6782L113.902 21.3475C113.765 22.0491 113.565 22.6304 113.297 23.0981C113.03 23.5658 112.699 23.9399 112.309 24.2272C111.918 24.5112 111.46 24.715 110.935 24.8286C110.411 24.9455 109.843 25.029 109.232 25.0825L112.202 36.0101H104.388L101.695 25.1226H92.4811L90.4299 36.0101L90.4266 35.9967ZM94.7996 12.6682L93.4332 19.9377L89.6916 21.2206H104.855C105.53 21.2206 106.068 21.0802 106.472 20.7929C106.876 20.509 107.147 20.0279 107.287 19.3531L108.226 14.2985C108.366 13.6237 108.276 13.1827 107.956 12.9756C107.635 12.7684 107.137 12.6649 106.462 12.6649H94.7963L94.7996 12.6682Z" fill="white"/>
    <path d="M118.733 32.2249L122.411 12.6681C122.521 12.1236 122.638 11.6124 122.762 11.1314C122.885 10.6536 123.082 10.2361 123.36 9.88863C123.634 9.53785 124.015 9.26725 124.499 9.07348C124.983 8.87972 125.638 8.78284 126.47 8.78284H147.584C148.412 8.78284 149.033 8.87972 149.444 9.07348C149.855 9.26725 150.129 9.54119 150.27 9.88863C150.41 10.2394 150.45 10.6536 150.39 11.1314C150.333 11.6124 150.246 12.1236 150.136 12.6681L146.458 32.2249C146.371 32.7695 146.257 33.2672 146.117 33.7216C145.977 34.1759 145.773 34.5702 145.509 34.9076C145.245 35.245 144.871 35.5089 144.386 35.7027C143.902 35.8964 143.257 35.9933 142.456 35.9933H121.342C120.537 35.9933 119.932 35.8964 119.521 35.7027C119.11 35.5089 118.83 35.2416 118.683 34.9076C118.532 34.5702 118.482 34.1759 118.532 33.7216C118.582 33.2672 118.649 32.7695 118.736 32.2249H118.733ZM139.476 32.108L143.134 12.6681H129.41L125.992 30.8252L122.251 32.108H139.476Z" fill="white"/>
  </g>
  <defs>
    <linearGradient id="paint0_linear_727_6175" x1="102.385" y1="42.1481" x2="109.042" y2="42.1481" gradientUnits="userSpaceOnUse">
      <stop stop-color="#CB0766"/>
      <stop offset="1" stop-color="#E04391"/>
    </linearGradient>
    <linearGradient id="paint1_linear_727_6175" x1="102.483" y1="48.7146" x2="108.364" y2="48.7146" gradientUnits="userSpaceOnUse">
      <stop stop-color="#CB0766"/>
      <stop offset="1" stop-color="#E04391"/>
    </linearGradient>
    <clipPath id="clip0_727_6175">
      <rect width="150" height="53.1181" fill="white" transform="translate(0.5 0.688232)"/>
    </clipPath>
  </defs>
</svg>