<svg width="151" height="54" viewBox="0 0 151 54" fill="none" xmlns="http://www.w3.org/2000/svg">
<g id="nitroLogoFinal 1" clip-path="url(#clip0_1147_2323)">
<path id="Vector" d="M93.4321 46.2525C93.5644 46.0922 93.7348 45.9619 93.9432 45.8617C94.1517 45.7615 94.3782 45.7113 94.6227 45.7113C94.8713 45.7113 95.0898 45.7655 95.2782 45.8737C95.4706 45.9779 95.619 46.1303 95.7232 46.3307C95.8274 46.5312 95.8795 46.7657 95.8795 47.0343C95.8795 47.1586 95.8675 47.2868 95.8435 47.4191C95.7833 47.7599 95.6631 48.0626 95.4827 48.3272C95.3023 48.5877 95.0838 48.7902 94.8272 48.9345C94.5706 49.0788 94.302 49.151 94.0214 49.151C93.7729 49.151 93.5624 49.1029 93.39 49.0067C93.2176 48.9064 93.0913 48.7782 93.0112 48.6218L92.927 49.0969H92.0791L92.8668 44.647H93.7147L93.4321 46.2525ZM94.9836 47.4191C94.9956 47.339 95.0016 47.2668 95.0016 47.2027C95.0016 46.9661 94.9334 46.7817 94.7971 46.6494C94.6608 46.5171 94.4864 46.451 94.274 46.451C94.1216 46.451 93.9713 46.4911 93.823 46.5712C93.6746 46.6474 93.5464 46.7597 93.4381 46.908C93.3299 47.0563 93.2577 47.2307 93.2216 47.4312C93.2056 47.5354 93.1976 47.6116 93.1976 47.6597C93.1976 47.8962 93.2657 48.0806 93.402 48.2129C93.5424 48.3452 93.7167 48.4113 93.9252 48.4113C94.0816 48.4113 94.2339 48.3713 94.3822 48.2911C94.5305 48.2109 94.6588 48.0966 94.7671 47.9483C94.8753 47.8 94.9475 47.6236 94.9836 47.4191ZM97.303 45.7655L97.748 48.0926L99.0409 45.7655H99.9369L97.0084 50.6724H96.1124L97.1226 49.0127L96.3589 45.7655H97.303Z" fill="black"/>
<g id="Mask group">
<mask id="mask0_1147_2323" style="mask-type:luminance" maskUnits="userSpaceOnUse" x="101" y="38" width="45" height="16">
<g id="Group">
<path id="Vector_2" d="M145.811 38.1045H101.126V53.4817H145.811V38.1045Z" fill="white"/>
</g>
</mask>
<g mask="url(#mask0_1147_2323)">
<g id="Group_2">
<path id="Vector_3" d="M104.718 47.8367C104.628 47.8367 104.555 47.8367 104.465 47.7465L103.126 46.4075C103.09 46.3714 103.071 46.3534 103.071 46.3173C103.053 46.2992 103.035 46.2267 103.053 46.1542C103.053 46.1182 103.071 46.1001 103.09 46.0821C103.108 46.0641 103.126 46.0457 103.144 46.0276C103.18 45.9916 103.198 45.9555 103.216 45.9374C103.542 45.6298 103.849 45.3221 104.175 45.0328C104.899 44.3272 105.622 43.6216 106.346 42.9161C106.346 42.88 106.4 42.6628 106.563 42.6087C106.617 42.5903 106.69 42.5903 106.726 42.5903C106.816 42.5903 106.889 42.5903 106.979 42.6809L108.39 44.0195C108.445 44.092 108.499 44.1825 108.48 44.2727C108.462 44.3633 108.372 44.4177 108.336 44.4358C108.173 44.5263 107.667 45.0328 106.707 46.0457C106.129 46.6066 105.568 47.1675 104.989 47.71C104.971 47.7284 104.953 47.7825 104.899 47.8186C104.844 47.8367 104.79 47.8367 104.718 47.8367Z" fill="#AF145B"/>
<path id="Vector_4" d="M108.373 41.3427L105.623 38.6834C105.206 38.3577 104.7 38.1045 104.121 38.1045C103.542 38.1045 102.963 38.3577 102.547 38.774C102.385 38.8642 102.385 38.9367 102.385 39.0272C102.385 39.1174 102.385 39.1899 102.475 39.2804L106.22 42.8624C106.31 42.9529 106.383 42.9529 106.383 43.0251C107.215 43.9478 107.305 45.2684 106.545 46.1911L108.373 44.4362C108.788 44.1105 109.042 43.5135 109.042 42.9346C109.042 42.3559 108.788 41.7589 108.373 41.3427Z" fill="url(#paint0_linear_1147_2323)"/>
<path id="Vector_5" d="M105.135 47.3487C104.303 46.4259 104.212 45.1053 105.044 44.1826L103.217 45.9375C102.801 46.3538 102.548 46.9324 102.548 47.5114C102.548 48.0903 102.801 48.6693 103.217 49.0852L107.215 53.1559C107.306 53.2461 107.378 53.2461 107.469 53.2461C107.559 53.2461 107.631 53.2461 107.721 53.1559C108.138 52.7396 108.391 52.1607 108.391 51.5817C108.391 51.0031 108.138 50.4242 107.721 50.0079L105.225 47.5114C105.207 47.4208 105.135 47.4208 105.135 47.3487Z" fill="url(#paint1_linear_1147_2323)"/>
<path id="Vector_6" d="M114.658 45.1956C114.785 44.8702 114.966 44.635 115.255 44.472C115.526 44.3093 115.852 44.2368 116.178 44.2368V45.666C115.78 45.6119 115.436 45.7024 115.11 45.9012C114.803 46.1003 114.658 46.444 114.658 46.9325V49.3204H113.374V44.3273H114.658V45.1956ZM121.985 48.7234C121.478 49.2299 120.845 49.4831 120.103 49.4831C119.362 49.4831 118.747 49.2299 118.222 48.7234C117.716 48.217 117.462 47.5836 117.462 46.8419C117.462 46.1003 117.716 45.4852 118.222 44.9788C118.729 44.472 119.362 44.2007 120.103 44.2007C120.845 44.2007 121.46 44.4539 121.985 44.9788C122.491 45.4852 122.762 46.1003 122.762 46.8419C122.762 47.5836 122.51 48.1989 121.985 48.7234ZM119.145 47.8371C119.398 48.0904 119.723 48.235 120.122 48.235C120.519 48.235 120.827 48.1084 121.099 47.8371C121.352 47.5836 121.496 47.2401 121.496 46.8419C121.496 46.444 121.369 46.1183 121.099 45.847C120.845 45.5938 120.519 45.4492 120.122 45.4492C119.723 45.4492 119.416 45.5758 119.145 45.847C118.891 46.1003 118.765 46.444 118.765 46.8419C118.765 47.2401 118.891 47.5655 119.145 47.8371ZM127.955 44.3454H129.239V49.3385H127.955V48.7776C127.647 49.2479 127.141 49.4831 126.471 49.4831C125.928 49.4831 125.476 49.3024 125.115 48.9406C124.753 48.5788 124.59 48.072 124.59 47.4209V44.3634H125.874V47.2762C125.874 47.6019 125.965 47.8732 126.146 48.0539C126.327 48.235 126.562 48.3072 126.869 48.3072C127.195 48.3072 127.466 48.1989 127.665 47.9998C127.864 47.8007 127.973 47.475 127.973 47.0771L127.955 44.3454ZM134.286 45.5758H133.147V47.6561C133.147 47.8371 133.183 47.9637 133.273 48.0359C133.364 48.1084 133.491 48.1625 133.653 48.1806C133.816 48.1806 134.033 48.1806 134.268 48.1625V49.3385C133.382 49.447 132.749 49.3565 132.387 49.0852C132.025 48.814 131.844 48.3436 131.844 47.6561V45.5758H130.976V44.3454H131.844V43.3325L133.129 42.9346V44.3273H134.25V45.5758H134.286ZM137.127 47.3668C137.308 47.9998 137.778 48.3072 138.538 48.3072C139.027 48.3072 139.406 48.1445 139.659 47.8007L140.69 48.3977C140.202 49.1033 139.478 49.4651 138.52 49.4651C137.688 49.4651 137.036 49.2119 136.53 48.7234C136.023 48.217 135.788 47.6019 135.788 46.8419C135.788 46.0822 136.042 45.4672 136.53 44.9604C137.018 44.4539 137.651 44.2007 138.429 44.2007C139.153 44.2007 139.768 44.4539 140.239 44.9604C140.709 45.4672 140.962 46.1003 140.962 46.8419C140.962 47.005 140.944 47.1857 140.908 47.3668H137.127ZM137.108 46.3715H139.659C139.587 46.0278 139.424 45.7745 139.207 45.6119C138.972 45.4492 138.719 45.3586 138.429 45.3586C138.085 45.3586 137.796 45.4492 137.579 45.6299C137.325 45.811 137.181 46.0462 137.108 46.3715ZM144.128 45.1956C144.255 44.8702 144.435 44.635 144.725 44.472C144.996 44.3093 145.322 44.2368 145.648 44.2368V45.666C145.249 45.6119 144.906 45.7024 144.58 45.9012C144.272 46.1003 144.128 46.444 144.128 46.9325V49.3204H142.843V44.3273H144.128V45.1956Z" fill="#CB0766"/>
</g>
</g>
</g>
<path id="Vector_7" d="M18.5006 36.4242C16.5497 36.4312 15.9504 35.0609 15.1917 33.3684C13.2153 28.9139 11.2325 24.4525 9.24971 19.991C8.22326 25.4664 7.20316 30.9489 6.1831 36.4312C5.09287 36.4383 4.01541 36.4312 2.92522 36.4242C0.113625 36.4383 0.343143 34.7879 0.725673 32.6412C1.93064 26.0748 3.14836 19.5085 4.37247 12.9491C4.79324 10.7533 5.1184 9.04004 8.05111 9.04004C9.13496 9.04004 10.2251 9.04004 11.3217 9.04004C13.9038 14.7463 16.4987 20.4525 19.0807 26.1797C18.2137 26.5154 17.3466 26.8511 16.4732 27.1867C17.4996 27.1937 18.5324 27.1937 19.5589 27.1937C20.4514 22.4455 21.344 17.6973 22.2493 12.9421C22.702 10.7533 23.0272 9.04004 25.9535 9.04004C27.0437 9.04004 28.1403 9.04004 29.2305 9.04004C27.7068 16.9001 26.1894 24.7672 24.6848 32.6342C24.1556 35.4103 22.7084 36.4312 20.5535 36.4312C19.8649 36.4312 19.1827 36.4312 18.5006 36.4242Z" fill="black"/>
<path id="Vector_8" d="M44.8618 18.9118C45.9977 12.8383 47.1369 6.76149 48.2727 0.687988C42.5934 9.66127 36.9142 18.6312 31.2349 27.6045H41.0968C40.0645 33.1 39.0322 38.5922 37.9999 44.0878C43.7093 35.639 49.4153 27.1902 55.1246 18.7414C52.0712 18.7982 47.9153 18.855 44.8618 18.9118Z" fill="#FFCC00"/>
<path id="Vector_9" d="M67.0981 35.9965H63.4032C62.5981 35.9965 61.9934 35.8996 61.5825 35.7059C61.1716 35.5121 60.891 35.2449 60.744 34.9108C60.5937 34.5734 60.5435 34.1792 60.5937 33.7248C60.6438 33.2705 60.7106 32.7727 60.7974 32.2282L64.4756 12.6713H54.2095C54.2863 12.2303 54.4366 11.7827 54.6538 11.3317C54.8709 10.8774 55.1616 10.4631 55.5224 10.0856C55.8832 9.71141 56.3409 9.40076 56.8954 9.15354C57.4467 8.90632 58.1148 8.78271 58.8899 8.78271H82.7262C82.6493 9.22369 82.479 9.67132 82.2251 10.1257C81.9678 10.58 81.6337 10.9943 81.2195 11.3718C80.8052 11.746 80.3041 12.06 79.7128 12.3039C79.1215 12.5511 78.4366 12.6747 77.6582 12.6747H71.4778L69.8041 21.7348L66.0625 23.0177H69.5603L67.1015 36.0032L67.0981 35.9965Z" fill="black"/>
<path id="Vector_10" d="M90.4266 35.9966H86.7317C85.9266 35.9966 85.3219 35.8997 84.911 35.706C84.5001 35.5122 84.2194 35.2449 84.0724 34.9109C83.9221 34.5734 83.872 34.1792 83.9221 33.7249C83.9722 33.2706 84.039 32.7728 84.1259 32.2282L87.8041 12.6714C87.9143 12.1269 88.0312 11.6158 88.1549 11.1347C88.2785 10.657 88.4756 10.2394 88.7528 9.89192C89.0268 9.54114 89.4076 9.27054 89.892 9.07678C90.3764 8.88302 91.0312 8.78613 91.8631 8.78613H110.565C111.55 8.78613 112.389 8.83958 113.08 8.94315C113.772 9.04671 114.326 9.24048 114.737 9.52778C115.148 9.81509 115.422 10.2093 115.549 10.7138C115.676 11.2182 115.669 11.873 115.526 12.6781L113.902 21.3474C113.765 22.0489 113.565 22.6302 113.297 23.0979C113.03 23.5656 112.699 23.9398 112.309 24.2271C111.918 24.5111 111.46 24.7149 110.935 24.8285C110.411 24.9454 109.843 25.0289 109.232 25.0824L112.202 36.01H104.388L101.695 25.1224H92.4811L90.4299 36.01L90.4266 35.9966ZM94.7996 12.6681L93.4332 19.9376L89.6916 21.2204H104.855C105.53 21.2204 106.068 21.0801 106.472 20.7928C106.876 20.5089 107.147 20.0278 107.287 19.353L108.226 14.2984C108.366 13.6236 108.276 13.1826 107.956 12.9754C107.635 12.7683 107.137 12.6648 106.462 12.6648H94.7963L94.7996 12.6681Z" fill="black"/>
<path id="Vector_11" d="M118.733 32.2248L122.411 12.668C122.521 12.1235 122.638 11.6123 122.762 11.1312C122.885 10.6535 123.082 10.2359 123.36 9.88851C123.634 9.53773 124.015 9.26713 124.499 9.07336C124.983 8.8796 125.638 8.78271 126.47 8.78271H147.584C148.412 8.78271 149.033 8.8796 149.444 9.07336C149.855 9.26713 150.129 9.54107 150.27 9.88851C150.41 10.2393 150.45 10.6535 150.39 11.1312C150.333 11.6123 150.246 12.1235 150.136 12.668L146.458 32.2248C146.371 32.7694 146.257 33.2671 146.117 33.7214C145.977 34.1758 145.773 34.57 145.509 34.9074C145.245 35.2449 144.871 35.5088 144.386 35.7025C143.902 35.8963 143.257 35.9932 142.456 35.9932H121.342C120.537 35.9932 119.932 35.8963 119.521 35.7025C119.11 35.5088 118.83 35.2415 118.683 34.9074C118.532 34.57 118.482 34.1758 118.532 33.7214C118.582 33.2671 118.649 32.7694 118.736 32.2248H118.733ZM139.476 32.1079L143.134 12.668H129.41L125.992 30.825L122.251 32.1079H139.476Z" fill="black"/>
</g>
<defs>
<linearGradient id="paint0_linear_1147_2323" x1="102.385" y1="42.1478" x2="109.042" y2="42.1478" gradientUnits="userSpaceOnUse">
<stop stop-color="#CB0766"/>
<stop offset="1" stop-color="#E04391"/>
</linearGradient>
<linearGradient id="paint1_linear_1147_2323" x1="102.483" y1="48.7144" x2="108.364" y2="48.7144" gradientUnits="userSpaceOnUse">
<stop stop-color="#CB0766"/>
<stop offset="1" stop-color="#E04391"/>
</linearGradient>
<clipPath id="clip0_1147_2323">
<rect width="150" height="53.1181" fill="white" transform="translate(0.5 0.687988)"/>
</clipPath>
</defs>
</svg>
