<svg width="257" height="74" viewBox="0 0 257 74" fill="none" xmlns="http://www.w3.org/2000/svg">
<g id="Frame 8013">
<path id="Vector" d="M30.9064 60.9329C27.575 60.9449 26.5516 58.6082 25.2561 55.7225C21.8811 48.1273 18.4953 40.5201 15.1095 32.9129C13.3567 42.249 11.6147 51.597 9.87287 60.9449C8.01119 60.9568 6.1713 60.9449 4.30967 60.9329C-0.491445 60.9568 -0.0995158 58.1429 0.553697 54.4825C2.61132 43.2864 4.69071 32.0902 6.78102 20.906C7.49953 17.162 8.05477 14.2407 13.0627 14.2407C14.9135 14.2407 16.7751 14.2407 18.6477 14.2407C23.0569 23.9703 27.4879 33.6999 31.897 43.4652C30.4164 44.0375 28.9358 44.6099 27.4443 45.1822C29.1971 45.1941 30.9608 45.1941 32.7136 45.1941C34.2377 37.0981 35.7619 29.002 37.3078 20.8941C38.0808 17.162 38.636 14.2407 43.6331 14.2407C45.4948 14.2407 47.3673 14.2407 49.229 14.2407C46.627 27.6427 44.0359 41.0567 41.4666 54.4706C40.563 59.2041 38.0917 60.9449 34.4119 60.9449C33.2361 60.9449 32.0712 60.9449 30.9064 60.9329Z" fill="black"/>
<path id="Vector_2" d="M75.9213 31.073C77.8609 20.7173 79.8062 10.3558 81.7458 0C72.0478 15.3001 62.3498 30.5946 52.6517 45.8947H69.4921C67.7293 55.265 65.9666 64.6297 64.2038 74C73.9532 59.5942 83.6968 45.1884 93.4462 30.7825C88.2321 30.8794 81.1354 30.9762 75.9213 31.073Z" fill="#FFCC00"/>
<path id="Vector_3" d="M113.892 60.2039H107.583C106.208 60.2039 105.175 60.0387 104.473 59.7083C103.772 59.378 103.293 58.9223 103.042 58.3526C102.785 57.7773 102.699 57.1052 102.785 56.3305C102.87 55.5558 102.985 54.707 103.133 53.7785L109.414 20.4326H91.8832C92.0144 19.6807 92.2711 18.9175 92.6419 18.1485C93.0127 17.3738 93.509 16.6674 94.1251 16.0237C94.7412 15.3857 95.5228 14.8561 96.4698 14.4345C97.4111 14.013 98.552 13.8022 99.8755 13.8022H140.579C140.447 14.5542 140.157 15.3174 139.723 16.0921C139.284 16.8668 138.713 17.5732 138.006 18.2168C137.298 18.8548 136.443 19.3903 135.433 19.8061C134.423 20.2276 133.254 20.4383 131.925 20.4383H121.371L118.513 35.8866L112.124 38.074H118.096L113.898 60.2153L113.892 60.2039Z" fill="black"/>
<path id="Vector_4" d="M153.728 60.2036H147.419C146.044 60.2036 145.011 60.0384 144.31 59.708C143.608 59.3776 143.129 58.9219 142.878 58.3523C142.621 57.777 142.535 57.1048 142.621 56.3301C142.707 55.5554 142.821 54.7067 142.969 53.7782L149.25 20.4324C149.438 19.5039 149.638 18.6323 149.849 17.8121C150.06 16.9975 150.396 16.2855 150.87 15.6931C151.338 15.095 151.988 14.6336 152.815 14.3032C153.642 13.9728 154.761 13.8076 156.181 13.8076H188.116C189.799 13.8076 191.231 13.8988 192.412 14.0753C193.593 14.2519 194.54 14.5823 195.241 15.0722C195.943 15.5621 196.411 16.2342 196.628 17.0944C196.844 17.9545 196.833 19.071 196.588 20.4437L193.815 35.2255C193.581 36.4217 193.239 37.4129 192.783 38.2104C192.326 39.0078 191.761 39.6458 191.094 40.1357C190.427 40.6199 189.645 40.9673 188.749 41.161C187.854 41.3604 186.884 41.5028 185.84 41.5939L190.911 60.2264H177.568L172.97 41.6623H157.236L153.734 60.2264L153.728 60.2036ZM161.196 20.4267L158.862 32.8217L152.473 35.0091H178.367C179.519 35.0091 180.438 34.7698 181.128 34.2799C181.818 33.7958 182.28 32.9755 182.52 31.8249L184.123 23.2064C184.362 22.0558 184.208 21.3039 183.661 20.9507C183.113 20.5975 182.263 20.421 181.111 20.421H161.19L161.196 20.4267Z" fill="black"/>
<path id="Vector_5" d="M202.064 53.7728L208.345 20.427C208.533 19.4985 208.733 18.6269 208.944 17.8067C209.155 16.9921 209.492 16.2801 209.965 15.6877C210.433 15.0896 211.083 14.6282 211.911 14.2978C212.738 13.9674 213.856 13.8022 215.276 13.8022H251.33C252.745 13.8022 253.806 13.9674 254.508 14.2978C255.209 14.6282 255.677 15.0953 255.917 15.6877C256.156 16.2858 256.225 16.9921 256.122 17.8067C256.025 18.6269 255.877 19.4985 255.689 20.427L249.408 53.7728C249.259 54.7013 249.065 55.55 248.826 56.3247C248.586 57.0994 248.238 57.7716 247.788 58.3469C247.337 58.9222 246.698 59.3723 245.871 59.7026C245.044 60.033 243.943 60.1982 242.573 60.1982H206.52C205.145 60.1982 204.112 60.033 203.411 59.7026C202.709 59.3723 202.23 58.9165 201.979 58.3469C201.722 57.7716 201.636 57.0994 201.722 56.3247C201.807 55.55 201.922 54.7013 202.07 53.7728H202.064ZM237.485 53.5734L243.731 20.427H220.296L214.461 51.3861L208.071 53.5734H237.485Z" fill="black"/>
</g>
</svg>
